<?xml version="1.0" encoding="UTF-8" standalone="no"?>
<!-- Generator: Adobe Illustrator 12.0.1, SVG Export Plug-In . SVG Version: 6.00 Build 51448)  -->

<svg
   xmlns:dc="http://purl.org/dc/elements/1.1/"
   xmlns:cc="http://creativecommons.org/ns#"
   xmlns:rdf="http://www.w3.org/1999/02/22-rdf-syntax-ns#"
   xmlns:svg="http://www.w3.org/2000/svg"
   xmlns="http://www.w3.org/2000/svg"
   xmlns:xlink="http://www.w3.org/1999/xlink"
   xmlns:sodipodi="http://sodipodi.sourceforge.net/DTD/sodipodi-0.dtd"
   xmlns:inkscape="http://www.inkscape.org/namespaces/inkscape"
   version="1.1"
   id="Layer_1"
   width="98.4"
   height="612.14"
   viewBox="0 0 98.4 612.14"
   overflow="visible"
   enable-background="new 0 0 98.4 612.14"
   xml:space="preserve"
   inkscape:version="0.48.4 r9939"
   sodipodi:docname="johnny_automatic_soyuz_rocket.svg"
   inkscape:export-filename="/home/kirill/soviet_attack/img/bkg/rocket.png"
   inkscape:export-xdpi="90"
   inkscape:export-ydpi="90"><defs
     id="defs3203"><linearGradient
       id="linearGradient4449"><stop
         style="stop-color:#000000;stop-opacity:1;"
         offset="0"
         id="stop4451" /><stop
         style="stop-color:#cccccc;stop-opacity:0;"
         offset="1"
         id="stop4453" /></linearGradient><radialGradient
       inkscape:collect="always"
       xlink:href="#linearGradient4449"
       id="radialGradient4455"
       cx="50.267365"
       cy="598.73541"
       fx="50.267365"
       fy="598.73541"
       r="81.544838"
       gradientTransform="matrix(1,0,0,0.2739726,0,434.69832)"
       gradientUnits="userSpaceOnUse" /></defs><sodipodi:namedview
     pagecolor="#ffffff"
     bordercolor="#666666"
     borderopacity="1"
     objecttolerance="10"
     gridtolerance="10"
     guidetolerance="10"
     inkscape:pageopacity="0"
     inkscape:pageshadow="2"
     inkscape:window-width="1301"
     inkscape:window-height="744"
     id="namedview3201"
     showgrid="false"
     inkscape:zoom="0.89521302"
     inkscape:cx="-213.17292"
     inkscape:cy="278.69982"
     inkscape:window-x="65"
     inkscape:window-y="24"
     inkscape:window-maximized="1"
     inkscape:current-layer="Layer_1" /><path
     sodipodi:type="arc"
     style="fill:url(#radialGradient4455);fill-opacity:1;stroke:none"
     id="path4447"
     sodipodi:cx="50.267365"
     sodipodi:cy="598.73541"
     sodipodi:rx="81.544838"
     sodipodi:ry="22.341051"
     d="m 131.8122,598.73541 a 81.544838,22.341051 0 1 1 -163.089673,0 81.544838,22.341051 0 1 1 163.089673,0 z"
     transform="matrix(2.15,0,0,2.15,-56.634563,-685.19456)" /><g
     id="g3123"><path
       clip-rule="evenodd"
       d="M49.2,4.8c0.602,0.199,0.76,0.841,1.2,1.2   c-0.081,9.681,0.071,19.129,0.96,27.84c0.755,1.565,2.382,2.258,2.88,4.08c-2.354-1.41-7.076-1.063-9.84-0.24   c0.607-1.553,1.725-2.595,2.64-3.84c0.097-5.868,0.912-12.369,1.2-18.72C48.421,11.113,48.011,6.952,49.2,4.8z"
       id="path3125"
       fill-rule="evenodd"
       fill="#FFFFFF" /><path
       clip-rule="evenodd"
       d="M54,38.4c0.947,2.186-1.653,0.784-2.64,0.72   c-2.26-0.146-5.165,0.355-6.96,0.48c1.727-1.627,6.802-1.527,9.12-0.48C53.744,38.944,53.883,38.684,54,38.4z"
       id="path3127"
       fill-rule="evenodd"
       fill="#FFFFFF" /><path
       clip-rule="evenodd"
       d="M54,40.56c0.217,0.647,1.544,0.976,0.721,1.92   c-2.257-2.111-8.905-0.927-11.28-0.48c-0.322-1.014,0.531-0.36,0.96-0.48c2.348-0.657,6.593-1.767,9.12-0.24   C53.744,41.104,53.883,40.844,54,40.56z"
       id="path3129"
       fill-rule="evenodd"
       fill="#FFFFFF" /><path
       clip-rule="evenodd"
       d="M52.799,42.96c-0.937,3.202,0.283,8.121,0.24,12   c-2.093-0.879-5.775-0.518-7.68,0.24c-0.142-3.753,1.117-8.628,0-11.76C47.001,42.29,50.467,42.764,52.799,42.96z"
       id="path3131"
       fill-rule="evenodd"
       fill="#FFFFFF" /><path
       clip-rule="evenodd"
       d="M55.68,60.48c-4.02,1.286-1.25,9.532,2.64,5.76   c1.94,3.1,3.654,6.426,5.04,10.08c-8.674-2.092-21.315-1.456-28.8,1.2c2.318-6.642,6.771-13.229,9.84-19.92   c2.296-1.728,6.949-2.285,9.6-0.48C54.492,58.308,54.939,59.541,55.68,60.48z"
       id="path3133"
       fill-rule="evenodd"
       fill="#FFFFFF" /><path
       clip-rule="evenodd"
       d="M55.919,62.16c1.113,0.53,2.134,2.458,1.2,3.6   C54.714,65.948,54.684,63.141,55.919,62.16z"
       id="path3135"
       fill-rule="evenodd"
       fill="#FFFFFF" /><path
       clip-rule="evenodd"
       d="M64.799,78.48c0.581,28.46,0.928,55.439,1.44,84.72   c-0.628,1.131-2.145,1.375-3.36,1.92c0.186,1.865-0.312,3.048-0.239,4.8c-9.75-1.977-22.057-1.022-30.24,1.92   c-0.216-14.347-0.661-30.202,0-44.4c0.195-4.188-0.747-9.101,0.96-11.76c-0.558-11.683-0.082-24.398-0.24-36.48   C42.206,76.819,55.468,75.359,64.799,78.48z M35.04,114.96c0.729,0.15,2.067-0.307,2.4,0.24c-0.57,0.15-1.118,0.322-1.2,0.96   c-0.186,6.94-1.727,14.856,1.2,19.68c0.776,0.198,2.076-0.298,2.16,0c0,0.56,0,1.12,0,1.68c4.749-0.052,8.683-0.917,13.44-0.96   c0-0.72,0-1.44,0-2.16c0.638-0.002,1.371,0.091,1.681-0.24c0.839-6.139-0.216-12.982-0.48-19.44   C50.75,111.029,39.429,113.181,35.04,114.96z"
       id="path3137"
       fill-rule="evenodd"
       fill="#FFFFFF" /><path
       clip-rule="evenodd"
       d="M54.24,114.72c0.265,6.458,1.319,13.302,0.48,19.44   c-0.31,0.331-1.043,0.237-1.681,0.24c0,0.72,0,1.44,0,2.16c-4.757,0.043-8.691,0.908-13.44,0.96c0-0.56,0-1.12,0-1.68   c-0.084-0.298-1.383,0.198-2.16,0c-2.927-4.824-1.386-12.739-1.2-19.68c0.083-0.638,0.63-0.81,1.2-0.96   c-0.333-0.547-1.671-0.09-2.4-0.24C39.429,113.181,50.75,111.029,54.24,114.72z M41.28,133.2c0,0.88,0,1.76,0,2.64   c3.652-0.027,6.681-0.679,10.32-0.72c0-0.8,0-1.6,0-2.4C47.962,132.683,45.113,133.433,41.28,133.2z"
       id="path3139"
       fill-rule="evenodd" /><path
       clip-rule="evenodd"
       d="M51.6,132.72c0,0.8,0,1.6,0,2.4   c-3.64,0.041-6.668,0.692-10.32,0.72c0-0.88,0-1.76,0-2.64C45.113,133.433,47.962,132.683,51.6,132.72z"
       id="path3141"
       fill-rule="evenodd"
       fill="#FFFFFF" /><path
       clip-rule="evenodd"
       d="M70.799,135.84c0.545,0.255,0.092,1.509,0.24,2.16   c-0.574,0.145-1.095,0.345-1.92,0.24c0-0.64,0-1.28,0-1.92C69.747,136.227,70.437,136.197,70.799,135.84z"
       id="path3143"
       fill-rule="evenodd"
       fill="#FFFFFF" /><path
       clip-rule="evenodd"
       d="M27.84,136.8c0.686,0.515,1.325,1.075,1.2,2.4   c-0.278-0.202-0.643-0.317-1.2-0.24C27.84,138.24,27.84,137.52,27.84,136.8z"
       id="path3145"
       fill-rule="evenodd"
       fill="#FFFFFF" /><path
       clip-rule="evenodd"
       d="M64.799,165.84c1.299,2.607,1.477,6.882,0.48,10.32   c-0.681,2.35-3.418,3.743-3.84,5.52c-0.16,22.479,0.32,45.6-0.24,67.68c-1.671-0.506-0.954-2.758-0.96-3.84   c-0.089-16.62,0-33.096,0-50.64c0-4.831-1.116-14.418,0.96-17.28c0.66-0.91,1.679-0.99,2.88-1.68   C64.25,172.489,63.613,168.253,64.799,165.84z"
       id="path3147"
       fill-rule="evenodd"
       fill="#FFFFFF" /><path
       clip-rule="evenodd"
       d="M62.64,172.08c0.102,0.501-0.165,0.635-0.24,0.96   c-4.282,0.275-9.585-0.835-14.88-0.48c-5.499,0.369-10.837,1.868-15.12,2.88c-0.751-2.913,1.803-2.708,4.32-3.12   c0.781-0.128,1.564-0.773,2.4-0.96c4.834-1.078,11.618-1.331,16.8-0.96C58.535,170.587,61.167,170.928,62.64,172.08z"
       id="path3149"
       fill-rule="evenodd"
       fill="#FFFFFF" /><path
       clip-rule="evenodd"
       d="M29.28,173.76c0.4,0,0.8,0,1.2,0   c0.362,0.438,0.254,1.346,0.72,1.68c-0.179,0.542-1.346,0.094-1.92,0.24C29.28,175.04,29.28,174.4,29.28,173.76z"
       id="path3151"
       fill-rule="evenodd"
       fill="#FFFFFF" /><path
       clip-rule="evenodd"
       d="M61.919,174.96c-0.282,0.838-1.643,0.598-2.159,1.2   c-2.066,13.11-0.442,32.971-0.961,48.24c-8.571-1.532-18.229,0.163-25.439,2.16c-0.556-16.084-0.083-33.197-0.24-49.68   C40.979,174.421,52.387,172.889,61.919,174.96z M49.44,190.32c0,5.04,0,10.08,0,15.12c1.717,0.395,5.003,0.395,6.72,0   c0-5.04,0-10.08,0-15.12C53.919,190.32,51.68,190.32,49.44,190.32z"
       id="path3153"
       fill-rule="evenodd"
       fill="#FFFFFF" /><path
       clip-rule="evenodd"
       d="M65.04,179.28c0.4,14.88,0.4,31.439,0,46.32   c-2.556,0.457-2.119-2.03-2.16-3.6c-0.33-12.68,0.248-27.323,0-39.84C63.481,181.082,64.235,180.155,65.04,179.28z"
       id="path3155"
       fill-rule="evenodd"
       fill="#FFFFFF" /><path
       clip-rule="evenodd"
       d="M56.16,190.32c0,5.04,0,10.08,0,15.12c-1.717,0.395-5.003,0.395-6.72,0   c0-5.04,0-10.08,0-15.12C51.68,190.32,53.919,190.32,56.16,190.32z M51.12,191.76c0,4.08,0,8.16,0,12.24c1.12,0,2.24,0,3.36,0   c0-4.08,0-8.16,0-12.24C53.36,191.76,52.24,191.76,51.12,191.76z"
       id="path3157"
       fill-rule="evenodd" /><path
       clip-rule="evenodd"
       d="M54.48,191.76c0,4.08,0,8.16,0,12.24c-1.12,0-2.24,0-3.36,0   c0-4.08,0-8.16,0-12.24C52.24,191.76,53.36,191.76,54.48,191.76z"
       id="path3159"
       fill-rule="evenodd"
       fill="#FFFFFF" /><path
       clip-rule="evenodd"
       d="M58.799,226.08c0,1.2,0,2.4,0,3.6   c-8.883-0.923-18.615-0.135-25.68,2.16c-0.352-0.84,0.195-2.839,0.48-3.84C40.662,226.018,50.479,224.637,58.799,226.08z"
       id="path3161"
       fill-rule="evenodd"
       fill="#FFFFFF" /><path
       clip-rule="evenodd"
       d="M62.879,226.8c0.741,0.059,1.357,0.244,1.92,0.48   c0.24,1.2,0.565,2.315,0.48,3.84c-0.838-0.202-1.278-0.802-2.4-0.72C62.879,229.2,62.879,228,62.879,226.8z"
       id="path3163"
       fill-rule="evenodd"
       fill="#FFFFFF" /><path
       clip-rule="evenodd"
       d="M58.799,231.36c0,4.88,0,9.76,0,14.64   c-9.842-0.465-19.369-0.688-26.64,2.4c0.129-4.911-0.277-10.357,0.24-14.88C39.83,231.604,50.051,229.684,58.799,231.36z"
       id="path3165"
       fill-rule="evenodd"
       fill="#FFFFFF" /><path
       clip-rule="evenodd"
       d="M62.879,231.84c1.024,0.336,2.19,0.53,3.12,0.96   c0.497,4.464,0.126,9.794,0.24,14.64c-1.183-0.177-2.218-0.501-3.36-0.72C62.879,241.76,62.879,236.8,62.879,231.84z"
       id="path3167"
       fill-rule="evenodd"
       fill="#FFFFFF" /><path
       clip-rule="evenodd"
       d="M66.72,276.48c-0.156,5.916,0.21,11.309,0.239,17.04   c-10.207-3.408-25.055-2.653-35.52,0c0.22-5.7,0.539-11.301,0.72-17.04C41.597,273.743,57.415,273.317,66.72,276.48z"
       id="path3169"
       fill-rule="evenodd"
       fill="#FFFFFF" /><path
       clip-rule="evenodd"
       d="M66.72,295.44c0.12,25.08,0.544,49.856,0.479,75.12   c-10.18-3.081-25.67-1.976-36,0.24c-0.062-25.102,0.351-49.729,0.48-74.64C41.655,293.33,56.274,292.701,66.72,295.44z"
       id="path3171"
       fill-rule="evenodd"
       fill="#FFFFFF" /><path
       clip-rule="evenodd"
       d="M66.959,371.76c0.555,0.806,0.084,2.636,0.24,3.84   c-10.661-2.812-26.062-2.134-36.24,0.721c0-1.2,0-2.4,0-3.601C40.89,369.621,56.871,369.393,66.959,371.76z"
       id="path3173"
       fill-rule="evenodd"
       fill="#FFFFFF" /><path
       clip-rule="evenodd"
       d="M61.2,375.84c-4.003,17.528-4.136,39.435-5.04,60   c-2.432,55.306,0.2,113.53,0,170.16c-4.229,0.828-10.035,0.471-14.64,0.24c-0.5-38.744,1.2-78.905,1.2-117.12   c0-19.594-0.546-39.173-1.2-58.08c-0.651-18.835-1.689-37.203-5.04-54.24C43.739,375.027,53.118,374.951,61.2,375.84z"
       id="path3175"
       fill-rule="evenodd"
       fill="#FFFFFF" /><path
       clip-rule="evenodd"
       d="M63.839,376.8c0.835-0.896,2.351,0.831,3.12,0   c0.56,3.121,0.081,7.279,0.24,10.8C66.037,384.043,65.456,379.903,63.839,376.8z"
       id="path3177"
       fill-rule="evenodd"
       fill="#FFFFFF" /><path
       clip-rule="evenodd"
       d="M62.16,377.28c2.68,5.96,4.304,12.977,5.521,20.399   c-2.659-0.529-5.889,0.099-8.16,0.721C60.319,391.278,61.104,384.144,62.16,377.28z"
       id="path3179"
       fill-rule="evenodd"
       fill="#FFFFFF" /><path
       clip-rule="evenodd"
       d="M35.04,377.52c1.906,6.015,2.118,13.723,2.88,20.881   c-2.187-0.759-5.496-1.181-8.16-0.721C31.425,390.865,32.66,383.62,35.04,377.52z"
       id="path3181"
       fill-rule="evenodd"
       fill="#FFFFFF" /><path
       clip-rule="evenodd"
       d="M29.52,399.12c3.08-0.04,6.211-0.132,8.4,0.72   c3.568,44.122,4.143,93.839,2.4,140.4c-8.847,1.903-20.055,1.403-28.08-1.2c-0.621-0.201-2.219-1.866-2.64-0.24   c2.519-23.44,5.078-47.4,8.4-70.8c3.318-23.372,6.618-46.353,11.28-68.16C29.259,399.499,29.24,399.16,29.52,399.12z"
       id="path3183"
       fill-rule="evenodd"
       fill="#FFFFFF" /><path
       clip-rule="evenodd"
       d="M68.16,399.12c9.028,43.853,14.282,91.477,19.92,138.72   c-6.936,3.115-21.566,5.08-30.96,2.16c-1.011-46.791-1.253-96.375,2.641-140.4C62.286,399.166,65.083,399.003,68.16,399.12z"
       id="path3185"
       fill-rule="evenodd"
       fill="#FFFFFF" /><path
       clip-rule="evenodd"
       d="M93.839,588c-8.671,3.273-24.868,5.089-36.239,2.16   c0.182-16.342-0.377-31.943-0.24-48.24c10.144,1.192,23.631,1.405,30.72-2.64C90.517,555.002,92.016,571.664,93.839,588z"
       id="path3187"
       fill-rule="evenodd"
       fill="#FFFFFF" /><path
       clip-rule="evenodd"
       d="M40.32,541.92c-0.413,15.827-0.093,32.387-0.48,48.24   c-10.097,2.479-24.164,1.685-32.88-1.2c-0.947-0.313-2.38-1.461-3.12-0.479c1.292-15.909,3.604-32.877,5.52-48.961   C16.958,543.041,30.046,543.266,40.32,541.92z"
       id="path3189"
       fill-rule="evenodd"
       fill="#FFFFFF" /><path
       clip-rule="evenodd"
       d="M3.6,589.2c8.917,4.11,24.578,4.868,36.24,2.64   c0,0.8,0,1.601,0,2.4c-9.894,2.513-24.523,2.017-33.12-1.2c-0.96-0.359-2.332-1.656-3.12-0.24c1.682,2.224,5.243,2.493,8.4,3.12   c7.892,1.568,19.077,2.108,27.84,0.24c0,3.28,0,6.56,0,9.84c-10.97,5.422-28.497,3.933-37.92-1.44   C2.398,599.358,2.941,594.222,3.6,589.2z"
       id="path3191"
       fill-rule="evenodd"
       fill="#FFFFFF" /><path
       clip-rule="evenodd"
       d="M93.839,589.2c1.305,4.456,1.095,10.425,1.921,15.359   c-4.54,1.725-10.558,4.321-16.561,5.04c-7.992,0.957-15.369-1.655-21.36-3.6c-0.549-2.812-0.088-6.632-0.239-9.84   c10.515,2.154,23.924,1.233,33.12-1.44c1.252-0.364,3.55-0.471,3.359-2.16c-1.536-0.988-3.094,0.737-4.8,1.2   c-8.265,2.245-22.384,3.008-31.68,0.48c0-0.801,0-1.601,0-2.4C69.258,593.994,84.971,593.404,93.839,589.2z"
       id="path3193"
       fill-rule="evenodd"
       fill="#FFFFFF" /><path
       clip-rule="evenodd"
       d="M33.6,377.04c-0.578,1.983-1.96,5.238-2.4,8.16   c-0.559-2.002-0.081-5.039-0.24-7.44C31.636,377.316,33.073,377.633,33.6,377.04z"
       id="path3195"
       fill-rule="evenodd"
       fill="#FFFFFF" /><path
       clip-rule="evenodd"
       d="M48.72,0c0.159,0,0.319,0,0.479,0c1.043,2.042,3.624,3.119,4.08,6   c0.599,3.783,0.011,9.097,0.24,13.92c0.217,4.556-0.138,9.781,0.96,12.96c0.618,1.79,2.773,2.275,2.399,4.32   c0.141,1.042,0.945,1.029,1.2,2.16c0.196,0.87,0.135,2.403,0,3.12c-0.263,1.401-0.318,1.259-1.2,2.16   c-0.865,0.885-1.164,0.423-1.439,1.92c-0.455,2.476-0.033,6.282,0.479,8.4c0.433,1.786,2.042,3.964,3.12,6   c2.189,4.134,3.944,7.647,6.24,12c1.071,2.032,2.582,4.394,2.88,6.24c0.976,6.042,0,12.301,0,18.24c0,5.559,0,11.24,0,18   c0.924,2.135,3.737,2.928,4.32,5.76c1.09,5.293-0.75,11.993,0.24,17.28c-1.033,1.412-2.744,0.631-3.36,2.16   c-0.599,1.485,0,5.417,0,8.16c0,7.678,0.692,16.599,0,24c-0.175,1.87-1.032,3.81-1.2,5.76c-0.645,7.49,0,16.798,0,25.44   c0,8.944-0.788,17.909-0.24,24.48c0.212,2.534,1.218,3.958,1.44,6.24c0.6,6.143,0.24,12.768,0.24,18.96   c0,38.255,0.075,76.107,0.479,114.72c0.064,6.144-0.273,12.636,0.24,18.72c0.362,4.294,1.553,8.8,2.4,13.2   c2.429,12.617,4.64,26.386,6.479,39.84c2.488,18.192,5.513,36.657,6.96,54.72c0.741,9.241,1.822,18.669,3.12,27.84   c3.886,27.449,5.46,55.661,9.12,83.521c-7.939,5.045-18.969,7.019-31.68,5.279c-3.574-0.488-6.771-2.169-10.08-2.399   c-5.229-0.364-11.136,0.744-16.081,0C29.06,613.819,8.17,612.958,0,606c4.257-37.315,7.663-74.188,12.24-111.36   c1.127-9.156,1.847-18.528,3.12-27.84c1.848-13.511,3.648-26.964,6-40.319c1.584-8.996,2.458-17.689,4.32-26.4   c0.914-4.272,2.104-8.861,2.4-12.96c0.928-12.812,0-25.726,0-38.4c0-31.677,0.72-62.866,0.72-95.28   c0-6.145-0.416-12.657,0.24-18.72c0.225-2.081,1.375-3.844,1.44-6.24c0.052-1.92-0.48-3.917-0.48-6c0-14.198,0-29.537,0-44.16   c0.031-1.311-2.911,0.351-2.88-0.96c0.294-1.709-0.408-3.568,0-4.8c0.508-1.535-0.019-0.629,0.96-1.2   c0.209-0.122,1.29,0.397,0.96-0.96c0-9.68,0-19.36,0-29.04c-0.723-1.252-2.087-0.595-2.64-1.92c-0.414-0.993,0.386-3.286,0.24-4.8   c-0.104-1.076-0.679-2.028-0.72-4.08c-0.069-3.48-0.707-7.215,0-9.84c0.579-2.148,3.594-3.264,4.08-6c0.878-4.948,0-11.591,0-17.76   c0-5.775-0.995-12.552,0-17.76c0.369-1.931,2.082-4.269,3.12-6.24c1.153-2.189,2.163-4.435,3.12-6.24   c2.22-4.184,5.341-8.291,6.24-12.24c0.442-1.944,0.806-6.668,0.48-8.16c-0.281-1.287-0.692-1.148-1.44-1.92   c-0.885-0.914-0.956-0.344-1.2-2.16c-0.125-0.929,0.098-2.093,0-3.12c0.781-1.188,1.001-2.651,1.68-3.84   c0.737-1.292,1.48-1.664,1.92-3.36c0.943-3.639,0.851-8.641,0.959-13.2C44.99,14.132,44.592,8.694,45.6,5.28   C46.139,3.454,48.494,1.829,48.72,0z M48.24,15.12c-0.288,6.351-1.104,12.852-1.2,18.72c-0.915,1.245-2.032,2.288-2.64,3.84   c2.764-0.824,7.485-1.17,9.84,0.24c-0.498-1.822-2.125-2.515-2.88-4.08C50.471,25.129,50.319,15.681,50.4,6   c-0.44-0.359-0.599-1.001-1.2-1.2C48.011,6.952,48.421,11.113,48.24,15.12z M53.52,39.12c-2.318-1.047-7.394-1.147-9.12,0.48   c1.795-0.125,4.7-0.626,6.96-0.48c0.986,0.063,3.587,1.466,2.64-0.72C53.883,38.684,53.744,38.944,53.52,39.12z M53.52,41.28   c-2.527-1.527-6.772-0.417-9.12,0.24c-0.429,0.12-1.282-0.534-0.96,0.48c2.375-0.447,9.023-1.631,11.28,0.48   c0.823-0.944-0.504-1.273-0.721-1.92C53.883,40.844,53.744,41.104,53.52,41.28z M45.36,43.44c1.117,3.132-0.142,8.007,0,11.76   c1.904-0.758,5.587-1.119,7.68-0.24c0.043-3.879-1.177-8.798-0.24-12C50.467,42.764,47.001,42.29,45.36,43.44z M54,57.12   c-2.65-1.805-7.304-1.248-9.6,0.48c-3.069,6.691-7.522,13.278-9.84,19.92c7.485-2.656,20.126-3.292,28.8-1.2   c-1.386-3.654-3.1-6.98-5.04-10.08c-3.89,3.771-6.659-4.474-2.64-5.76C54.939,59.541,54.492,58.308,54,57.12z M57.12,65.76   c0.934-1.141-0.087-3.069-1.2-3.6C54.684,63.141,54.714,65.948,57.12,65.76z M33.12,79.2c0.158,12.082-0.317,24.797,0.24,36.48   c-1.707,2.659-0.765,7.572-0.96,11.76c-0.661,14.198-0.216,30.053,0,44.4c8.183-2.942,20.49-3.897,30.24-1.92   c-0.072-1.752,0.425-2.935,0.239-4.8c1.216-0.544,2.732-0.789,3.36-1.92c-0.513-29.281-0.859-56.26-1.44-84.72   C55.468,75.359,42.206,76.819,33.12,79.2z M69.12,136.32c0,0.64,0,1.28,0,1.92c0.825,0.105,1.346-0.095,1.92-0.24   c-0.148-0.651,0.305-1.905-0.24-2.16C70.437,136.197,69.747,136.227,69.12,136.32z M27.84,138.96c0.557-0.077,0.921,0.039,1.2,0.24   c0.125-1.325-0.514-1.886-1.2-2.4C27.84,137.52,27.84,138.24,27.84,138.96z M64.08,175.92c-1.201,0.69-2.22,0.771-2.88,1.68   c-2.076,2.861-0.96,12.449-0.96,17.28c0,17.544-0.089,34.02,0,50.64c0.006,1.082-0.711,3.334,0.96,3.84   c0.561-22.08,0.08-45.2,0.24-67.68c0.422-1.777,3.159-3.17,3.84-5.52c0.996-3.438,0.818-7.713-0.48-10.32   C63.613,168.253,64.25,172.489,64.08,175.92z M55.919,170.4c-5.182-0.371-11.965-0.118-16.8,0.96   c-0.836,0.187-1.619,0.832-2.4,0.96c-2.517,0.413-5.071,0.208-4.32,3.12c4.283-1.012,9.621-2.511,15.12-2.88   c5.295-0.355,10.598,0.755,14.88,0.48c0.075-0.325,0.342-0.458,0.24-0.96C61.167,170.928,58.535,170.587,55.919,170.4z    M29.28,175.68c0.574-0.146,1.741,0.301,1.92-0.24c-0.465-0.334-0.358-1.242-0.72-1.68c-0.4,0-0.8,0-1.2,0   C29.28,174.4,29.28,175.04,29.28,175.68z M33.12,176.88c0.157,16.483-0.315,33.596,0.24,49.68c7.21-1.997,16.868-3.692,25.439-2.16   c0.519-15.269-1.105-35.129,0.961-48.24c0.517-0.603,1.877-0.362,2.159-1.2C52.387,172.889,40.979,174.421,33.12,176.88z    M62.879,182.16c0.248,12.517-0.33,27.16,0,39.84c0.041,1.57-0.396,4.057,2.16,3.6c0.4-14.88,0.4-31.44,0-46.32   C64.235,180.155,63.481,181.082,62.879,182.16z M33.6,228c-0.285,1.001-0.832,3-0.48,3.84c7.064-2.295,16.797-3.083,25.68-2.16   c0-1.2,0-2.4,0-3.6C50.479,224.637,40.662,226.018,33.6,228z M62.879,230.4c1.122-0.082,1.562,0.518,2.4,0.72   c0.085-1.525-0.24-2.64-0.48-3.84c-0.562-0.236-1.179-0.421-1.92-0.48C62.879,228,62.879,229.2,62.879,230.4z M32.4,233.52   c-0.518,4.522-0.111,9.969-0.24,14.88c7.271-3.087,16.798-2.865,26.64-2.4c0-4.88,0-9.76,0-14.64   C50.051,229.684,39.83,231.604,32.4,233.52z M62.879,246.72c1.143,0.218,2.178,0.542,3.36,0.72   c-0.114-4.846,0.257-10.176-0.24-14.64c-0.93-0.43-2.096-0.624-3.12-0.96C62.879,236.8,62.879,241.76,62.879,246.72z M32.16,276.48   c-0.181,5.739-0.5,11.34-0.72,17.04c10.464-2.653,25.312-3.408,35.52,0c-0.029-5.731-0.396-11.124-0.239-17.04   C57.415,273.317,41.597,273.743,32.16,276.48z M31.68,296.16c-0.129,24.91-0.542,49.538-0.48,74.64   c10.33-2.216,25.82-3.321,36-0.24c0.064-25.264-0.359-50.04-0.479-75.12C56.274,292.701,41.655,293.33,31.68,296.16z M30.96,372.72   c0,1.2,0,2.4,0,3.601c10.178-2.854,25.579-3.532,36.24-0.721c-0.156-1.204,0.314-3.034-0.24-3.84   C56.871,369.393,40.89,369.621,30.96,372.72z M36.48,376.8c3.351,17.037,4.389,35.405,5.04,54.24   c0.653,18.907,1.2,38.486,1.2,58.08c0,38.215-1.699,78.376-1.2,117.12c4.604,0.23,10.41,0.588,14.64-0.24   c0.2-56.63-2.432-114.854,0-170.16c0.904-20.565,1.037-42.472,5.04-60C53.118,374.951,43.739,375.027,36.48,376.8z M67.2,387.6   c-0.159-3.521,0.319-7.679-0.24-10.8c-0.77,0.831-2.285-0.896-3.12,0C65.456,379.903,66.037,384.043,67.2,387.6z M30.96,377.76   c0.159,2.401-0.319,5.438,0.24,7.44c0.439-2.922,1.822-6.177,2.4-8.16C33.073,377.633,31.636,377.316,30.96,377.76z M59.52,398.4   c2.271-0.622,5.501-1.25,8.16-0.721c-1.217-7.423-2.841-14.439-5.521-20.399C61.104,384.144,60.319,391.278,59.52,398.4z    M29.76,397.68c2.665-0.46,5.973-0.038,8.16,0.721c-0.763-7.158-0.975-14.866-2.88-20.881   C32.66,383.62,31.425,390.865,29.76,397.68z M29.28,399.84C24.618,421.647,21.318,444.628,18,468   c-3.323,23.399-5.881,47.359-8.4,70.8c0.421-1.626,2.019,0.039,2.64,0.24c8.025,2.604,19.233,3.104,28.08,1.2   c1.743-46.562,1.168-96.278-2.4-140.4c-2.189-0.852-5.32-0.76-8.4-0.72C29.24,399.16,29.259,399.499,29.28,399.84z M59.76,399.6   c-3.894,44.025-3.651,93.609-2.641,140.4c9.394,2.92,24.024,0.955,30.96-2.16c-5.638-47.243-10.892-94.867-19.92-138.72   C65.083,399.003,62.286,399.166,59.76,399.6z M88.08,539.28c-7.089,4.045-20.576,3.832-30.72,2.64   c-0.137,16.297,0.422,31.898,0.24,48.24c11.371,2.929,27.568,1.113,36.239-2.16C92.016,571.664,90.517,555.002,88.08,539.28z    M9.36,539.52c-1.917,16.084-4.229,33.052-5.52,48.961c0.74-0.981,2.173,0.166,3.12,0.479c8.716,2.885,22.783,3.679,32.88,1.2   c0.387-15.854,0.067-32.413,0.48-48.24C30.046,543.266,16.958,543.041,9.36,539.52z M1.92,604.56   c9.423,5.373,26.95,6.862,37.92,1.44c0-3.28,0-6.56,0-9.84c-8.763,1.868-19.948,1.328-27.84-0.24   c-3.158-0.627-6.719-0.896-8.4-3.12c0.788-1.416,2.16-0.119,3.12,0.24c8.597,3.217,23.226,3.713,33.12,1.2c0-0.8,0-1.601,0-2.4   c-11.663,2.229-27.323,1.471-36.24-2.64C2.941,594.222,2.398,599.358,1.92,604.56z M57.6,591.84c0,0.8,0,1.6,0,2.4   c9.296,2.527,23.415,1.765,31.68-0.48c1.706-0.463,3.264-2.188,4.8-1.2c0.19,1.689-2.107,1.796-3.359,2.16   c-9.196,2.674-22.605,3.595-33.12,1.44c0.151,3.208-0.31,7.028,0.239,9.84c5.991,1.944,13.368,4.557,21.36,3.6   c6.003-0.719,12.021-3.315,16.561-5.04c-0.826-4.935-0.616-10.903-1.921-15.359C84.971,593.404,69.258,593.994,57.6,591.84z"
       id="path3197"
       fill-rule="evenodd" /></g><metadata
     id="metadata3199"><rdf:RDF><cc:Work><dc:format>image/svg+xml</dc:format><dc:type
           rdf:resource="http://purl.org/dc/dcmitype/StillImage" /><cc:license
           rdf:resource="http://creativecommons.org/licenses/publicdomain/" /><dc:publisher><cc:Agent
             rdf:about="http://openclipart.org/"><dc:title>Open Clip Art Library</dc:title></cc:Agent></dc:publisher><dc:title></dc:title><dc:date>2006-10-25T18:42:04</dc:date><dc:description>A NASA drawing of the Russian Soyuz rocket from 147266main_3.2.1.Liftoff_Activity11.pdf</dc:description><dc:source>http://openclipart.org/detail/901/soyuz-rocket-by-johnny_automatic</dc:source><dc:creator><cc:Agent><dc:title>johnny_automatic</dc:title></cc:Agent></dc:creator><dc:subject><rdf:Bag><rdf:li>black and white</rdf:li><rdf:li>clip art</rdf:li><rdf:li>clipart</rdf:li><rdf:li>nasa</rdf:li><rdf:li>outline</rdf:li><rdf:li>remix problem</rdf:li><rdf:li>rocket</rdf:li><rdf:li>russian</rdf:li><rdf:li>soyuz</rdf:li><rdf:li>space</rdf:li><rdf:li>spacecraft</rdf:li></rdf:Bag></dc:subject></cc:Work><cc:License
         rdf:about="http://creativecommons.org/licenses/publicdomain/"><cc:permits
           rdf:resource="http://creativecommons.org/ns#Reproduction" /><cc:permits
           rdf:resource="http://creativecommons.org/ns#Distribution" /><cc:permits
           rdf:resource="http://creativecommons.org/ns#DerivativeWorks" /></cc:License></rdf:RDF></metadata><path
     style="fill:#aa0000;stroke:#000000;stroke-width:1px;stroke-linecap:butt;stroke-linejoin:miter;stroke-opacity:1"
     d="m 29.574914,248.75831 0,27.97008 c 11.600423,-2.43061 23.280607,-4.74157 39.662482,0 l 0,-28.19934 c -13.220827,-3.32104 -26.441655,-4.93606 -39.662482,0.22926 z"
     id="path3205"
     inkscape:connector-curvature="0"
     transform="translate(0,-2.578022e-6)"
     sodipodi:nodetypes="ccccc" /><path
     style="fill:#800000;fill-opacity:1;stroke:none"
     d="m 21.874648,591.42044 c -7.019685,-0.60038 -12.670538,-1.66046 -15.7045088,-2.94611 -0.5043784,-0.21373 -1.2062071,-0.3978 -1.5596194,-0.40904 -0.6351775,-0.0202 -0.6410556,-0.0339 -0.5110886,-1.18883 0.072314,-0.64262 0.3393007,-3.38652 0.5933046,-6.09755 0.8363629,-8.92667 4.5950414,-40.67855 4.8449725,-40.92848 0.058642,-0.0586 0.7177017,0.13279 1.4645757,0.42539 1.798675,0.70468 4.927811,1.45502 7.891946,1.89244 4.619034,0.68164 17.117915,0.64861 20.633574,-0.0545 l 0.628096,-0.12562 -0.0881,14.63819 c -0.04845,8.051 -0.150052,18.88021 -0.225775,24.0649 l -0.137682,9.4267 -2.208909,0.38064 c -1.214901,0.20935 -2.982674,0.47887 -3.928383,0.59893 -1.880745,0.23877 -10.041292,0.46418 -11.692408,0.32296 z"
     id="path3209"
     inkscape:connector-curvature="0" /><path
     style="fill:#ff0000;fill-opacity:1;stroke:none"
     d="m 67.383334,591.41481 c -3.012693,-0.23646 -5.91016,-0.58457 -7.699977,-0.9251 l -1.968404,-0.3745 -0.151554,-23.96517 c -0.08335,-13.18084 -0.115358,-24.00136 -0.07112,-24.0456 0.04424,-0.0442 1.10139,0.0468 2.349221,0.20228 1.340712,0.16707 5.176046,0.28617 9.375934,0.29115 5.769272,0.007 7.581881,-0.0689 9.629042,-0.40219 2.84645,-0.46345 6.82238,-1.55396 8.167374,-2.24013 0.680133,-0.34698 0.920873,-0.38679 0.993815,-0.16435 0.589779,1.79852 5.84606,47.1914 5.552982,47.95516 -0.308118,0.80294 -8.775751,2.70912 -14.828803,3.33816 -2.476592,0.25738 -9.626354,0.46546 -11.348513,0.33029 l 0,0 z"
     id="path3211"
     inkscape:connector-curvature="0" /><path
     style="fill:#ff0000;fill-opacity:1;stroke:none"
     d="m 20.613702,591.20746 c -0.252189,-0.0499 -1.799714,-0.25303 -3.438944,-0.4513 -3.881511,-0.46947 -6.633977,-1.04318 -10.1198589,-2.10931 -2.7115477,-0.82931 -2.8334946,-0.89324 -2.8334946,-1.48561 0,-2.52535 4.9311655,-45.46285 5.3835017,-46.87617 0.055279,-0.17272 0.9045638,-0.0105 2.5652988,0.48998 5.053252,1.52287 7.528781,1.80193 16.123804,1.81759 4.224169,0.008 8.59713,-0.0699 9.717693,-0.17245 l 2.037384,-0.18645 -0.173609,21.85179 c -0.09549,12.01848 -0.238548,22.78017 -0.317915,23.91487 l -0.144302,2.06307 -3.095049,0.50174 c -2.405684,0.38999 -4.448251,0.5275 -9.170516,0.6174 -3.341507,0.0636 -6.281804,0.0748 -6.533993,0.0249 z"
     id="path3213"
     inkscape:connector-curvature="0" /><path
     style="fill:#ff0000;fill-opacity:1;stroke:none"
     d="m 30.94859,262.32019 0,-13.18116 4.103658,-1.105 c 5.559386,-1.49699 19.860003,-1.51692 26.985797,-0.0376 l 5.823511,1.20895 0,13.18541 0,13.18542 -3.332421,-0.98248 c -4.469266,-1.31764 -23.782698,-1.39449 -29.222764,-0.11628 l -4.357781,1.02392 0,-13.18117 z"
     id="path3215"
     inkscape:connector-curvature="0" /><path
     style="fill:#ff0000;fill-opacity:1;stroke:none"
     d=""
     id="path3217"
     inkscape:connector-curvature="0" /><path
     style="fill:#ff0000;fill-opacity:1;stroke:none"
     d="m 33.25565,397.01357 c -1.268883,-0.24439 -2.30706,-0.8942 -2.30706,-1.44401 0,-2.94681 3.47807,-14.24271 4.166999,-13.53337 1.1689,1.20353 2.427711,15.72852 1.348629,15.56138 -0.495829,-0.0768 -1.939685,-0.3396 -3.208568,-0.584 z"
     id="path3231"
     inkscape:connector-curvature="0" /><path
     style="fill:#ff0000;fill-opacity:1;stroke:none"
     d="m 60.773862,394.42432 c 0.04941,-1.84358 0.42976,-5.65902 0.845233,-8.47876 l 0.755405,-5.1268 1.231345,2.9545 c 1.340122,3.21551 3.478938,12.04255 3.008845,12.41772 -0.160146,0.12781 -1.560058,0.53678 -3.110915,0.90884 -2.650181,0.63578 -2.814339,0.47489 -2.729913,-2.6755 z"
     id="path3233"
     inkscape:connector-curvature="0" /><path
     style="fill:#ff6600;fill-opacity:1;stroke:none"
     d="m 64.124365,607.23934 c -4.562469,-1.3463 -5.359082,-1.97588 -5.895821,-4.65957 -1.15767,-5.78835 -1.35326,-5.67478 8.863992,-5.14696 6.323416,0.32666 12.367731,-0.0559 18.135021,-1.14792 4.757743,-0.90084 8.753212,-1.53168 8.878822,-1.40187 0.12561,0.12981 0.375346,2.2954 0.554971,4.81242 l 0.326591,4.57641 -6.642012,2.31758 c -7.770171,2.71123 -16.447011,2.94405 -24.221564,0.64991 l 0,0 z"
     id="path3239"
     inkscape:connector-curvature="0" /><path
     style="fill:#ff6600;fill-opacity:1;stroke:none"
     d="m 13.725851,607.88132 c -7.1361697,-1.27135 -11.8359333,-3.71008 -11.0577718,-5.73793 0.3276826,-0.85393 0.5957865,-3.07583 0.5957865,-4.93756 l 0,-3.38497 4.3577806,1.60491 c 3.0923007,1.13885 8.3026947,1.6251 17.9424087,1.67445 l 13.584627,0.0695 0.0014,4.25747 c 0.0012,3.87706 -0.296369,4.3634 -3.331026,5.44294 -4.661089,1.65812 -15.640992,2.16064 -22.0932,1.01115 l -4.1e-5,0 z"
     id="path3241"
     inkscape:connector-curvature="0" /><path
     style="fill:#ff6600;fill-opacity:1;stroke:none"
     d="m 32.206291,285.32785 c 0.26804,-4.17664 0.671476,-7.7766 0.896523,-7.99991 1.374575,-1.36395 16.958057,-2.46082 23.900382,-1.68227 4.351799,0.48803 8.067554,1.05032 8.257233,1.24953 0.189678,0.1992 0.672551,3.90098 1.07305,8.22617 l 0.728179,7.86399 -3.957832,-0.91835 c -4.968316,-1.1528 -20.955595,-1.1597 -26.899598,-0.0116 l -4.485284,0.86634 0.487347,-7.59389 0,0 z"
     id="path3243"
     inkscape:connector-curvature="0" /><path
     style="fill:#ff6600;fill-opacity:1;stroke:none"
     d="m 32.99931,240.0795 c 0,-7.37422 -0.244721,-7.24259 15.124063,-8.13493 l 10.509941,-0.61022 0,6.8121 0,6.81209 -9.612751,0 c -5.287014,0 -11.054664,0.28838 -12.817002,0.64085 l -3.204251,0.64085 0,-6.16074 z"
     id="path3245"
     inkscape:connector-curvature="0" /><path
     style="fill:#ff6600;fill-opacity:1;stroke:none"
     d=""
     id="path3247"
     inkscape:connector-curvature="0" /><path
     style="fill:#ff6600;fill-opacity:1;stroke:none"
     d="m 64.529135,246.41856 c -0.422961,-0.42704 -0.76902,-3.791 -0.76902,-7.47546 0,-4.68504 0.324161,-6.37486 1.078238,-5.62079 0.597308,0.59731 0.940317,3.93162 0.76902,7.47547 -0.17007,3.51848 -0.655277,6.04783 -1.078238,5.62078 z"
     id="path3249"
     inkscape:connector-curvature="0" /><path
     style="fill:#ff6600;fill-opacity:1;stroke:none"
     d="m 36.075391,75.512789 c 0,-0.587785 2.07276,-4.87123 4.606134,-9.518767 3.442216,-6.314828 5.265689,-8.615603 7.216277,-9.10517 4.233793,-1.062614 6.121392,0.707489 6.121392,5.740361 0,3.822196 0.318519,4.474554 2.323716,4.759179 1.474436,0.209288 3.037311,1.728597 4.276182,4.156986 l 1.952466,3.827148 -8.890303,-0.400441 c -4.889666,-0.220241 -10.851304,0.05178 -13.248084,0.604483 -2.98221,0.68771 -4.35778,0.667577 -4.35778,-0.06378 z"
     id="path3251"
     inkscape:connector-curvature="0" /><path
     style="fill:#ff6600;fill-opacity:1;stroke:none"
     d="m 46.846765,35.016049 c 0.405447,-0.986909 0.979562,-7.215972 1.275812,-13.842362 0.296249,-6.62639 0.93671,-12.0479816 1.423246,-12.0479816 0.486535,0 0.88461,5.6753686 0.88461,12.6119296 0,8.442132 0.40681,13.01874 1.230432,13.842363 0.957003,0.957002 0.476909,1.230432 -2.160422,1.230432 -2.826641,0 -3.268194,-0.298572 -2.653678,-1.794381 z"
     id="path3253"
     inkscape:connector-curvature="0" /><path
     style="fill:#ff0000;fill-opacity:1;stroke:none"
     d="m 46.531747,48.858412 c 0.284206,-4.936422 0.53065,-5.408785 2.969742,-5.692156 2.561941,-0.297644 2.666662,-0.09955 2.845823,5.383141 l 0.186005,5.692155 -3.155747,0 -3.155748,0 0.309925,-5.38314 z"
     id="path3259"
     inkscape:connector-curvature="0" /><flowRoot
     xml:space="preserve"
     id="flowRoot3263"
     style="font-size:9px;font-style:normal;font-variant:normal;font-weight:bold;font-stretch:normal;line-height:110.00000238000001218%;letter-spacing:0px;word-spacing:0px;fill:#d40000;fill-opacity:1;stroke:#c20000;font-family:Arial;-inkscape-font-specification:Arial Bold;stroke-opacity:1"
     transform="matrix(1.8500967,0,0,1.8500967,-28.211337,-264.77145)"><flowRegion
       id="flowRegion3265"><rect
         id="rect3267"
         width="10.253601"
         height="56.229553"
         x="32.811523"
         y="302.48123"
         style="font-size:9px;font-style:normal;font-variant:normal;font-weight:bold;font-stretch:normal;line-height:110.00000238000001218%;font-family:Arial;-inkscape-font-specification:Arial Bold;fill:#d40000;stroke:#c20000;stroke-opacity:1" /></flowRegion><flowPara
       id="flowPara3269">с</flowPara><flowPara
       id="flowPara3271">с</flowPara><flowPara
       id="flowPara3273">с</flowPara><flowPara
       id="flowPara3275">р</flowPara></flowRoot><path
     sodipodi:type="star"
     style="fill:#d40000;fill-opacity:1;stroke:#c20000;stroke-width:0.44100001;stroke-linecap:round;stroke-linejoin:miter;stroke-miterlimit:4;stroke-opacity:1;stroke-dasharray:none"
     id="path4045"
     sodipodi:sides="5"
     sodipodi:cx="42.414789"
     sodipodi:cy="95.91216"
     sodipodi:r1="8.2667179"
     sodipodi:r2="2.7280168"
     sodipodi:arg1="0.90975316"
     sodipodi:arg2="1.5380717"
     inkscape:flatsided="false"
     inkscape:rounded="0"
     inkscape:randomized="0"
     d="m 47.490061,102.43751 -4.986016,-3.798791 -4.72689,4.116761 2.072105,-5.915876 -5.375961,-3.223391 6.266648,0.142584 1.404363,-6.108926 1.800896,6.003997 6.243906,-0.552133 -5.153634,3.568091 z"
     transform="translate(0,-2.578022e-6)"
     inkscape:transform-center-x="0.083581355"
     inkscape:transform-center-y="-0.70948597" /></svg>