<?xml version="1.0" encoding="UTF-8" standalone="no"?>
<!-- Generator: Adobe Illustrator 12.0.1, SVG Export Plug-In . SVG Version: 6.00 Build 51448)  -->

<svg
   xmlns:dc="http://purl.org/dc/elements/1.1/"
   xmlns:cc="http://creativecommons.org/ns#"
   xmlns:rdf="http://www.w3.org/1999/02/22-rdf-syntax-ns#"
   xmlns:svg="http://www.w3.org/2000/svg"
   xmlns="http://www.w3.org/2000/svg"
   xmlns:xlink="http://www.w3.org/1999/xlink"
   xmlns:sodipodi="http://sodipodi.sourceforge.net/DTD/sodipodi-0.dtd"
   xmlns:inkscape="http://www.inkscape.org/namespaces/inkscape"
   version="1.1"
   id="Layer_1"
   width="98.4"
   height="612.14"
   viewBox="0 0 98.4 612.14"
   overflow="visible"
   enable-background="new 0 0 98.4 612.14"
   xml:space="preserve"
   inkscape:version="0.48.4 r9939"
   sodipodi:docname="rocket.svg"
   inkscape:export-filename="/home/kirill/soviet_attack/img/bkg/rocket.png"
   inkscape:export-xdpi="90"
   inkscape:export-ydpi="90"><defs
     id="defs3203"><linearGradient
       id="linearGradient4449"><stop
         style="stop-color:#2b0000;stop-opacity:1;"
         offset="0"
         id="stop4451" /><stop
         style="stop-color:#2c0000;stop-opacity:0;"
         offset="1"
         id="stop4453" /></linearGradient><radialGradient
       inkscape:collect="always"
       xlink:href="#linearGradient4449"
       id="radialGradient4455"
       cx="50.267365"
       cy="598.73541"
       fx="50.267365"
       fy="598.73541"
       r="81.544838"
       gradientTransform="matrix(1,0,0,0.2739726,0,434.69832)"
       gradientUnits="userSpaceOnUse" /></defs><sodipodi:namedview
     pagecolor="#ffffff"
     bordercolor="#666666"
     borderopacity="1"
     objecttolerance="10"
     gridtolerance="10"
     guidetolerance="10"
     inkscape:pageopacity="0"
     inkscape:pageshadow="2"
     inkscape:window-width="1301"
     inkscape:window-height="744"
     id="namedview3201"
     showgrid="false"
     inkscape:zoom="0.97526707"
     inkscape:cx="49.200001"
     inkscape:cy="306.07001"
     inkscape:window-x="65"
     inkscape:window-y="24"
     inkscape:window-maximized="1"
     inkscape:current-layer="Layer_1" /><path
     sodipodi:type="arc"
     style="opacity:1;fill:url(#radialGradient4455);fill-opacity:1;stroke:none"
     id="path4447"
     sodipodi:cx="50.267365"
     sodipodi:cy="598.73541"
     sodipodi:rx="81.544838"
     sodipodi:ry="22.341051"
     d="m 131.8122,598.73541 a 81.544838,22.341051 0 1 1 -163.089673,0 81.544838,22.341051 0 1 1 163.089673,0 z"
     transform="matrix(1.862707,0,0,1.862707,-34.026068,-575.76282)"
     inkscape:export-xdpi="90"
     inkscape:export-ydpi="90" /><g
     id="g3123"
     transform="matrix(0.86637531,0,0,0.86637531,15.040718,17.872842)"><path
       clip-rule="evenodd"
       d="m 49.2,4.8 c 0.602,0.199 0.76,0.841 1.2,1.2 -0.081,9.681 0.071,19.129 0.96,27.84 0.755,1.565 2.382,2.258 2.88,4.08 -2.354,-1.41 -7.076,-1.063 -9.84,-0.24 0.607,-1.553 1.725,-2.595 2.64,-3.84 0.097,-5.868 0.912,-12.369 1.2,-18.72 C 48.421,11.113 48.011,6.952 49.2,4.8 z"
       id="path3125"
       inkscape:connector-curvature="0"
       style="fill:#ffffff;fill-rule:evenodd" /><path
       clip-rule="evenodd"
       d="m 54,38.4 c 0.947,2.186 -1.653,0.784 -2.64,0.72 -2.26,-0.146 -5.165,0.355 -6.96,0.48 1.727,-1.627 6.802,-1.527 9.12,-0.48 0.224,-0.176 0.363,-0.436 0.48,-0.72 z"
       id="path3127"
       inkscape:connector-curvature="0"
       style="fill:#ffffff;fill-rule:evenodd" /><path
       clip-rule="evenodd"
       d="m 54,40.56 c 0.217,0.647 1.544,0.976 0.721,1.92 -2.257,-2.111 -8.905,-0.927 -11.28,-0.48 -0.322,-1.014 0.531,-0.36 0.96,-0.48 2.348,-0.657 6.593,-1.767 9.12,-0.24 0.223,-0.176 0.362,-0.436 0.479,-0.72 z"
       id="path3129"
       inkscape:connector-curvature="0"
       style="fill:#ffffff;fill-rule:evenodd" /><path
       clip-rule="evenodd"
       d="m 52.799,42.96 c -0.937,3.202 0.283,8.121 0.24,12 -2.093,-0.879 -5.775,-0.518 -7.68,0.24 -0.142,-3.753 1.117,-8.628 0,-11.76 1.642,-1.15 5.108,-0.676 7.44,-0.48 z"
       id="path3131"
       inkscape:connector-curvature="0"
       style="fill:#ffffff;fill-rule:evenodd" /><path
       clip-rule="evenodd"
       d="m 55.68,60.48 c -4.02,1.286 -1.25,9.532 2.64,5.76 1.94,3.1 3.654,6.426 5.04,10.08 -8.674,-2.092 -21.315,-1.456 -28.8,1.2 2.318,-6.642 6.771,-13.229 9.84,-19.92 2.296,-1.728 6.949,-2.285 9.6,-0.48 0.492,1.188 0.939,2.421 1.68,3.36 z"
       id="path3133"
       inkscape:connector-curvature="0"
       style="fill:#ffffff;fill-rule:evenodd" /><path
       clip-rule="evenodd"
       d="m 55.919,62.16 c 1.113,0.53 2.134,2.458 1.2,3.6 -2.405,0.188 -2.435,-2.619 -1.2,-3.6 z"
       id="path3135"
       inkscape:connector-curvature="0"
       style="fill:#ffffff;fill-rule:evenodd" /><path
       clip-rule="evenodd"
       d="m 64.799,78.48 c 0.581,28.46 0.928,55.439 1.44,84.72 -0.628,1.131 -2.145,1.375 -3.36,1.92 0.186,1.865 -0.312,3.048 -0.239,4.8 -9.75,-1.977 -22.057,-1.022 -30.24,1.92 -0.216,-14.347 -0.661,-30.202 0,-44.4 0.195,-4.188 -0.747,-9.101 0.96,-11.76 C 32.802,103.997 33.278,91.282 33.12,79.2 42.206,76.819 55.468,75.359 64.799,78.48 z M 35.04,114.96 c 0.729,0.15 2.067,-0.307 2.4,0.24 -0.57,0.15 -1.118,0.322 -1.2,0.96 -0.186,6.94 -1.727,14.856 1.2,19.68 0.776,0.198 2.076,-0.298 2.16,0 0,0.56 0,1.12 0,1.68 4.749,-0.052 8.683,-0.917 13.44,-0.96 0,-0.72 0,-1.44 0,-2.16 0.638,-0.002 1.371,0.091 1.681,-0.24 0.839,-6.139 -0.216,-12.982 -0.48,-19.44 -3.491,-3.691 -14.812,-1.539 -19.201,0.24 z"
       id="path3137"
       inkscape:connector-curvature="0"
       style="fill:#ffffff;fill-rule:evenodd" /><path
       clip-rule="evenodd"
       d="m 54.24,114.72 c 0.265,6.458 1.319,13.302 0.48,19.44 -0.31,0.331 -1.043,0.237 -1.681,0.24 0,0.72 0,1.44 0,2.16 -4.757,0.043 -8.691,0.908 -13.44,0.96 0,-0.56 0,-1.12 0,-1.68 -0.084,-0.298 -1.383,0.198 -2.16,0 -2.927,-4.824 -1.386,-12.739 -1.2,-19.68 0.083,-0.638 0.63,-0.81 1.2,-0.96 -0.333,-0.547 -1.671,-0.09 -2.4,-0.24 4.39,-1.779 15.711,-3.931 19.201,-0.24 z M 41.28,133.2 c 0,0.88 0,1.76 0,2.64 3.652,-0.027 6.681,-0.679 10.32,-0.72 0,-0.8 0,-1.6 0,-2.4 -3.638,-0.037 -6.487,0.713 -10.32,0.48 z"
       id="path3139"
       inkscape:connector-curvature="0"
       style="fill-rule:evenodd" /><path
       clip-rule="evenodd"
       d="m 51.6,132.72 c 0,0.8 0,1.6 0,2.4 -3.64,0.041 -6.668,0.692 -10.32,0.72 0,-0.88 0,-1.76 0,-2.64 3.833,0.233 6.682,-0.517 10.32,-0.48 z"
       id="path3141"
       inkscape:connector-curvature="0"
       style="fill:#ffffff;fill-rule:evenodd" /><path
       clip-rule="evenodd"
       d="m 70.799,135.84 c 0.545,0.255 0.092,1.509 0.24,2.16 -0.574,0.145 -1.095,0.345 -1.92,0.24 0,-0.64 0,-1.28 0,-1.92 0.628,-0.093 1.318,-0.123 1.68,-0.48 z"
       id="path3143"
       inkscape:connector-curvature="0"
       style="fill:#ffffff;fill-rule:evenodd" /><path
       clip-rule="evenodd"
       d="m 27.84,136.8 c 0.686,0.515 1.325,1.075 1.2,2.4 -0.278,-0.202 -0.643,-0.317 -1.2,-0.24 0,-0.72 0,-1.44 0,-2.16 z"
       id="path3145"
       inkscape:connector-curvature="0"
       style="fill:#ffffff;fill-rule:evenodd" /><path
       clip-rule="evenodd"
       d="m 64.799,165.84 c 1.299,2.607 1.477,6.882 0.48,10.32 -0.681,2.35 -3.418,3.743 -3.84,5.52 -0.16,22.479 0.32,45.6 -0.24,67.68 -1.671,-0.506 -0.954,-2.758 -0.96,-3.84 -0.089,-16.62 0,-33.096 0,-50.64 0,-4.831 -1.116,-14.418 0.96,-17.28 0.66,-0.91 1.679,-0.99 2.88,-1.68 0.171,-3.431 -0.466,-7.667 0.72,-10.08 z"
       id="path3147"
       inkscape:connector-curvature="0"
       style="fill:#ffffff;fill-rule:evenodd" /><path
       clip-rule="evenodd"
       d="m 62.64,172.08 c 0.102,0.501 -0.165,0.635 -0.24,0.96 -4.282,0.275 -9.585,-0.835 -14.88,-0.48 -5.499,0.369 -10.837,1.868 -15.12,2.88 -0.751,-2.913 1.803,-2.708 4.32,-3.12 0.781,-0.128 1.564,-0.773 2.4,-0.96 4.834,-1.078 11.618,-1.331 16.8,-0.96 2.615,0.187 5.247,0.528 6.72,1.68 z"
       id="path3149"
       inkscape:connector-curvature="0"
       style="fill:#ffffff;fill-rule:evenodd" /><path
       clip-rule="evenodd"
       d="m 29.28,173.76 c 0.4,0 0.8,0 1.2,0 0.362,0.438 0.254,1.346 0.72,1.68 -0.179,0.542 -1.346,0.094 -1.92,0.24 0,-0.64 0,-1.28 0,-1.92 z"
       id="path3151"
       inkscape:connector-curvature="0"
       style="fill:#ffffff;fill-rule:evenodd" /><path
       clip-rule="evenodd"
       d="m 61.919,174.96 c -0.282,0.838 -1.643,0.598 -2.159,1.2 -2.066,13.11 -0.442,32.971 -0.961,48.24 -8.571,-1.532 -18.229,0.163 -25.439,2.16 -0.556,-16.084 -0.083,-33.197 -0.24,-49.68 7.859,-2.459 19.267,-3.991 28.799,-1.92 z M 49.44,190.32 c 0,5.04 0,10.08 0,15.12 1.717,0.395 5.003,0.395 6.72,0 0,-5.04 0,-10.08 0,-15.12 -2.241,0 -4.48,0 -6.72,0 z"
       id="path3153"
       inkscape:connector-curvature="0"
       style="fill:#ffffff;fill-rule:evenodd" /><path
       clip-rule="evenodd"
       d="m 65.04,179.28 c 0.4,14.88 0.4,31.439 0,46.32 -2.556,0.457 -2.119,-2.03 -2.16,-3.6 -0.33,-12.68 0.248,-27.323 0,-39.84 0.601,-1.078 1.355,-2.005 2.16,-2.88 z"
       id="path3155"
       inkscape:connector-curvature="0"
       style="fill:#ffffff;fill-rule:evenodd" /><path
       clip-rule="evenodd"
       d="m 56.16,190.32 c 0,5.04 0,10.08 0,15.12 -1.717,0.395 -5.003,0.395 -6.72,0 0,-5.04 0,-10.08 0,-15.12 2.24,0 4.479,0 6.72,0 z m -5.04,1.44 c 0,4.08 0,8.16 0,12.24 1.12,0 2.24,0 3.36,0 0,-4.08 0,-8.16 0,-12.24 -1.12,0 -2.24,0 -3.36,0 z"
       id="path3157"
       inkscape:connector-curvature="0"
       style="fill-rule:evenodd" /><path
       clip-rule="evenodd"
       d="m 54.48,191.76 c 0,4.08 0,8.16 0,12.24 -1.12,0 -2.24,0 -3.36,0 0,-4.08 0,-8.16 0,-12.24 1.12,0 2.24,0 3.36,0 z"
       id="path3159"
       inkscape:connector-curvature="0"
       style="fill:#ffffff;fill-rule:evenodd" /><path
       clip-rule="evenodd"
       d="m 58.799,226.08 c 0,1.2 0,2.4 0,3.6 -8.883,-0.923 -18.615,-0.135 -25.68,2.16 -0.352,-0.84 0.195,-2.839 0.48,-3.84 7.063,-1.982 16.88,-3.363 25.2,-1.92 z"
       id="path3161"
       inkscape:connector-curvature="0"
       style="fill:#ffffff;fill-rule:evenodd" /><path
       clip-rule="evenodd"
       d="m 62.879,226.8 c 0.741,0.059 1.357,0.244 1.92,0.48 0.24,1.2 0.565,2.315 0.48,3.84 -0.838,-0.202 -1.278,-0.802 -2.4,-0.72 0,-1.2 0,-2.4 0,-3.6 z"
       id="path3163"
       inkscape:connector-curvature="0"
       style="fill:#ffffff;fill-rule:evenodd" /><path
       clip-rule="evenodd"
       d="m 58.799,231.36 c 0,4.88 0,9.76 0,14.64 -9.842,-0.465 -19.369,-0.688 -26.64,2.4 0.129,-4.911 -0.277,-10.357 0.24,-14.88 7.431,-1.916 17.652,-3.836 26.4,-2.16 z"
       id="path3165"
       inkscape:connector-curvature="0"
       style="fill:#ffffff;fill-rule:evenodd" /><path
       clip-rule="evenodd"
       d="m 62.879,231.84 c 1.024,0.336 2.19,0.53 3.12,0.96 0.497,4.464 0.126,9.794 0.24,14.64 -1.183,-0.177 -2.218,-0.501 -3.36,-0.72 0,-4.96 0,-9.92 0,-14.88 z"
       id="path3167"
       inkscape:connector-curvature="0"
       style="fill:#ffffff;fill-rule:evenodd" /><path
       clip-rule="evenodd"
       d="m 66.72,276.48 c -0.156,5.916 0.21,11.309 0.239,17.04 -10.207,-3.408 -25.055,-2.653 -35.52,0 0.22,-5.7 0.539,-11.301 0.72,-17.04 9.438,-2.737 25.256,-3.163 34.561,0 z"
       id="path3169"
       inkscape:connector-curvature="0"
       style="fill:#ffffff;fill-rule:evenodd" /><path
       clip-rule="evenodd"
       d="m 66.72,295.44 c 0.12,25.08 0.544,49.856 0.479,75.12 -10.18,-3.081 -25.67,-1.976 -36,0.24 -0.062,-25.102 0.351,-49.729 0.48,-74.64 9.976,-2.83 24.595,-3.459 35.041,-0.72 z"
       id="path3171"
       inkscape:connector-curvature="0"
       style="fill:#ffffff;fill-rule:evenodd" /><path
       clip-rule="evenodd"
       d="m 66.959,371.76 c 0.555,0.806 0.084,2.636 0.24,3.84 -10.661,-2.812 -26.062,-2.134 -36.24,0.721 0,-1.2 0,-2.4 0,-3.601 9.931,-3.099 25.912,-3.327 36,-0.96 z"
       id="path3173"
       inkscape:connector-curvature="0"
       style="fill:#ffffff;fill-rule:evenodd" /><path
       clip-rule="evenodd"
       d="m 61.2,375.84 c -4.003,17.528 -4.136,39.435 -5.04,60 -2.432,55.306 0.2,113.53 0,170.16 -4.229,0.828 -10.035,0.471 -14.64,0.24 -0.5,-38.744 1.2,-78.905 1.2,-117.12 0,-19.594 -0.546,-39.173 -1.2,-58.08 -0.651,-18.835 -1.689,-37.203 -5.04,-54.24 7.259,-1.773 16.638,-1.849 24.72,-0.96 z"
       id="path3175"
       inkscape:connector-curvature="0"
       style="fill:#ffffff;fill-rule:evenodd" /><path
       clip-rule="evenodd"
       d="m 63.839,376.8 c 0.835,-0.896 2.351,0.831 3.12,0 0.56,3.121 0.081,7.279 0.24,10.8 -1.162,-3.557 -1.743,-7.697 -3.36,-10.8 z"
       id="path3177"
       inkscape:connector-curvature="0"
       style="fill:#ffffff;fill-rule:evenodd" /><path
       clip-rule="evenodd"
       d="m 62.16,377.28 c 2.68,5.96 4.304,12.977 5.521,20.399 -2.659,-0.529 -5.889,0.099 -8.16,0.721 0.798,-7.122 1.583,-14.256 2.639,-21.12 z"
       id="path3179"
       inkscape:connector-curvature="0"
       style="fill:#ffffff;fill-rule:evenodd" /><path
       clip-rule="evenodd"
       d="m 35.04,377.52 c 1.906,6.015 2.118,13.723 2.88,20.881 -2.187,-0.759 -5.496,-1.181 -8.16,-0.721 1.665,-6.815 2.9,-14.06 5.28,-20.16 z"
       id="path3181"
       inkscape:connector-curvature="0"
       style="fill:#ffffff;fill-rule:evenodd" /><path
       clip-rule="evenodd"
       d="m 29.52,399.12 c 3.08,-0.04 6.211,-0.132 8.4,0.72 3.568,44.122 4.143,93.839 2.4,140.4 -8.847,1.903 -20.055,1.403 -28.08,-1.2 -0.621,-0.201 -2.219,-1.866 -2.64,-0.24 2.519,-23.44 5.078,-47.4 8.4,-70.8 3.318,-23.372 6.618,-46.353 11.28,-68.16 -0.021,-0.341 -0.04,-0.68 0.24,-0.72 z"
       id="path3183"
       inkscape:connector-curvature="0"
       style="fill:#ffffff;fill-rule:evenodd" /><path
       clip-rule="evenodd"
       d="m 68.16,399.12 c 9.028,43.853 14.282,91.477 19.92,138.72 -6.936,3.115 -21.566,5.08 -30.96,2.16 -1.011,-46.791 -1.253,-96.375 2.641,-140.4 2.525,-0.434 5.322,-0.597 8.399,-0.48 z"
       id="path3185"
       inkscape:connector-curvature="0"
       style="fill:#ffffff;fill-rule:evenodd" /><path
       clip-rule="evenodd"
       d="m 93.839,588 c -8.671,3.273 -24.868,5.089 -36.239,2.16 0.182,-16.342 -0.377,-31.943 -0.24,-48.24 10.144,1.192 23.631,1.405 30.72,-2.64 2.437,15.722 3.936,32.384 5.759,48.72 z"
       id="path3187"
       inkscape:connector-curvature="0"
       style="fill:#ffffff;fill-rule:evenodd" /><path
       clip-rule="evenodd"
       d="m 40.32,541.92 c -0.413,15.827 -0.093,32.387 -0.48,48.24 -10.097,2.479 -24.164,1.685 -32.88,-1.2 -0.947,-0.313 -2.38,-1.461 -3.12,-0.479 1.292,-15.909 3.604,-32.877 5.52,-48.961 7.598,3.521 20.686,3.746 30.96,2.4 z"
       id="path3189"
       inkscape:connector-curvature="0"
       style="fill:#ffffff;fill-rule:evenodd" /><path
       clip-rule="evenodd"
       d="m 3.6,589.2 c 8.917,4.11 24.578,4.868 36.24,2.64 0,0.8 0,1.601 0,2.4 -9.894,2.513 -24.523,2.017 -33.12,-1.2 -0.96,-0.359 -2.332,-1.656 -3.12,-0.24 1.682,2.224 5.243,2.493 8.4,3.12 7.892,1.568 19.077,2.108 27.84,0.24 0,3.28 0,6.56 0,9.84 -10.97,5.422 -28.497,3.933 -37.92,-1.44 0.478,-5.202 1.021,-10.338 1.68,-15.36 z"
       id="path3191"
       inkscape:connector-curvature="0"
       style="fill:#ffffff;fill-rule:evenodd" /><path
       clip-rule="evenodd"
       d="m 93.839,589.2 c 1.305,4.456 1.095,10.425 1.921,15.359 -4.54,1.725 -10.558,4.321 -16.561,5.04 -7.992,0.957 -15.369,-1.655 -21.36,-3.6 -0.549,-2.812 -0.088,-6.632 -0.239,-9.84 10.515,2.154 23.924,1.233 33.12,-1.44 1.252,-0.364 3.55,-0.471 3.359,-2.16 -1.536,-0.988 -3.094,0.737 -4.8,1.2 -8.265,2.245 -22.384,3.008 -31.68,0.48 0,-0.801 0,-1.601 0,-2.4 11.659,2.155 27.372,1.565 36.24,-2.639 z"
       id="path3193"
       inkscape:connector-curvature="0"
       style="fill:#ffffff;fill-rule:evenodd" /><path
       clip-rule="evenodd"
       d="m 33.6,377.04 c -0.578,1.983 -1.96,5.238 -2.4,8.16 -0.559,-2.002 -0.081,-5.039 -0.24,-7.44 0.676,-0.444 2.113,-0.127 2.64,-0.72 z"
       id="path3195"
       inkscape:connector-curvature="0"
       style="fill:#ffffff;fill-rule:evenodd" /><path
       clip-rule="evenodd"
       d="m 48.72,0 c 0.159,0 0.319,0 0.479,0 1.043,2.042 3.624,3.119 4.08,6 0.599,3.783 0.011,9.097 0.24,13.92 0.217,4.556 -0.138,9.781 0.96,12.96 0.618,1.79 2.773,2.275 2.399,4.32 0.141,1.042 0.945,1.029 1.2,2.16 0.196,0.87 0.135,2.403 0,3.12 -0.263,1.401 -0.318,1.259 -1.2,2.16 -0.865,0.885 -1.164,0.423 -1.439,1.92 -0.455,2.476 -0.033,6.282 0.479,8.4 0.433,1.786 2.042,3.964 3.12,6 2.189,4.134 3.944,7.647 6.24,12 1.071,2.032 2.582,4.394 2.88,6.24 0.976,6.042 0,12.301 0,18.24 0,5.559 0,11.24 0,18 0.924,2.135 3.737,2.928 4.32,5.76 1.09,5.293 -0.75,11.993 0.24,17.28 -1.033,1.412 -2.744,0.631 -3.36,2.16 -0.599,1.485 0,5.417 0,8.16 0,7.678 0.692,16.599 0,24 -0.175,1.87 -1.032,3.81 -1.2,5.76 -0.645,7.49 0,16.798 0,25.44 0,8.944 -0.788,17.909 -0.24,24.48 0.212,2.534 1.218,3.958 1.44,6.24 0.6,6.143 0.24,12.768 0.24,18.96 0,38.255 0.075,76.107 0.479,114.72 0.064,6.144 -0.273,12.636 0.24,18.72 0.362,4.294 1.553,8.8 2.4,13.2 2.429,12.617 4.64,26.386 6.479,39.84 2.488,18.192 5.513,36.657 6.96,54.72 0.741,9.241 1.822,18.669 3.12,27.84 3.886,27.449 5.46,55.661 9.12,83.521 -7.939,5.045 -18.969,7.019 -31.68,5.279 -3.574,-0.488 -6.771,-2.169 -10.08,-2.399 -5.229,-0.364 -11.136,0.744 -16.081,0 C 29.06,613.819 8.17,612.958 0,606 4.257,568.685 7.663,531.812 12.24,494.64 c 1.127,-9.156 1.847,-18.528 3.12,-27.84 1.848,-13.511 3.648,-26.964 6,-40.319 1.584,-8.996 2.458,-17.689 4.32,-26.4 0.914,-4.272 2.104,-8.861 2.4,-12.96 0.928,-12.812 0,-25.726 0,-38.4 0,-31.677 0.72,-62.866 0.72,-95.28 0,-6.145 -0.416,-12.657 0.24,-18.72 0.225,-2.081 1.375,-3.844 1.44,-6.24 0.052,-1.92 -0.48,-3.917 -0.48,-6 0,-14.198 0,-29.537 0,-44.16 0.031,-1.311 -2.911,0.351 -2.88,-0.96 0.294,-1.709 -0.408,-3.568 0,-4.8 0.508,-1.535 -0.019,-0.629 0.96,-1.2 0.209,-0.122 1.29,0.397 0.96,-0.96 0,-9.68 0,-19.36 0,-29.04 -0.723,-1.252 -2.087,-0.595 -2.64,-1.92 -0.414,-0.993 0.386,-3.286 0.24,-4.8 -0.104,-1.076 -0.679,-2.028 -0.72,-4.08 -0.069,-3.48 -0.707,-7.215 0,-9.84 0.579,-2.148 3.594,-3.264 4.08,-6 0.878,-4.948 0,-11.591 0,-17.76 0,-5.775 -0.995,-12.552 0,-17.76 0.369,-1.931 2.082,-4.269 3.12,-6.24 1.153,-2.189 2.163,-4.435 3.12,-6.24 2.22,-4.184 5.341,-8.291 6.24,-12.24 0.442,-1.944 0.806,-6.668 0.48,-8.16 -0.281,-1.287 -0.692,-1.148 -1.44,-1.92 -0.885,-0.914 -0.956,-0.344 -1.2,-2.16 -0.125,-0.929 0.098,-2.093 0,-3.12 0.781,-1.188 1.001,-2.651 1.68,-3.84 0.737,-1.292 1.48,-1.664 1.92,-3.36 0.943,-3.639 0.851,-8.641 0.959,-13.2 C 44.99,14.132 44.592,8.694 45.6,5.28 46.139,3.454 48.494,1.829 48.72,0 z m -0.48,15.12 c -0.288,6.351 -1.104,12.852 -1.2,18.72 -0.915,1.245 -2.032,2.288 -2.64,3.84 2.764,-0.824 7.485,-1.17 9.84,0.24 C 53.742,36.098 52.115,35.405 51.36,33.84 50.471,25.129 50.319,15.681 50.4,6 49.96,5.641 49.801,4.999 49.2,4.8 48.011,6.952 48.421,11.113 48.24,15.12 z m 5.28,24 c -2.318,-1.047 -7.394,-1.147 -9.12,0.48 1.795,-0.125 4.7,-0.626 6.96,-0.48 0.986,0.063 3.587,1.466 2.64,-0.72 -0.117,0.284 -0.256,0.544 -0.48,0.72 z m 0,2.16 c -2.527,-1.527 -6.772,-0.417 -9.12,0.24 -0.429,0.12 -1.282,-0.534 -0.96,0.48 2.375,-0.447 9.023,-1.631 11.28,0.48 0.823,-0.944 -0.504,-1.273 -0.721,-1.92 -0.116,0.284 -0.255,0.544 -0.479,0.72 z m -8.16,2.16 c 1.117,3.132 -0.142,8.007 0,11.76 1.904,-0.758 5.587,-1.119 7.68,-0.24 0.043,-3.879 -1.177,-8.798 -0.24,-12 -2.333,-0.196 -5.799,-0.67 -7.44,0.48 z M 54,57.12 c -2.65,-1.805 -7.304,-1.248 -9.6,0.48 -3.069,6.691 -7.522,13.278 -9.84,19.92 7.485,-2.656 20.126,-3.292 28.8,-1.2 -1.386,-3.654 -3.1,-6.98 -5.04,-10.08 -3.89,3.771 -6.659,-4.474 -2.64,-5.76 C 54.939,59.541 54.492,58.308 54,57.12 z m 3.12,8.64 c 0.934,-1.141 -0.087,-3.069 -1.2,-3.6 -1.236,0.981 -1.206,3.788 1.2,3.6 z m -24,13.44 c 0.158,12.082 -0.317,24.797 0.24,36.48 -1.707,2.659 -0.765,7.572 -0.96,11.76 -0.661,14.198 -0.216,30.053 0,44.4 8.183,-2.942 20.49,-3.897 30.24,-1.92 -0.072,-1.752 0.425,-2.935 0.239,-4.8 1.216,-0.544 2.732,-0.789 3.36,-1.92 C 65.726,133.919 65.38,106.94 64.799,78.48 55.468,75.359 42.206,76.819 33.12,79.2 z m 36,57.12 c 0,0.64 0,1.28 0,1.92 0.825,0.105 1.346,-0.095 1.92,-0.24 -0.148,-0.651 0.305,-1.905 -0.24,-2.16 -0.363,0.357 -1.053,0.387 -1.68,0.48 z m -41.28,2.64 c 0.557,-0.077 0.921,0.039 1.2,0.24 0.125,-1.325 -0.514,-1.886 -1.2,-2.4 0,0.72 0,1.44 0,2.16 z m 36.24,36.96 c -1.201,0.69 -2.22,0.771 -2.88,1.68 -2.076,2.861 -0.96,12.449 -0.96,17.28 0,17.544 -0.089,34.02 0,50.64 0.006,1.082 -0.711,3.334 0.96,3.84 0.561,-22.08 0.08,-45.2 0.24,-67.68 0.422,-1.777 3.159,-3.17 3.84,-5.52 0.996,-3.438 0.818,-7.713 -0.48,-10.32 -1.187,2.413 -0.55,6.649 -0.72,10.08 z m -8.161,-5.52 c -5.182,-0.371 -11.965,-0.118 -16.8,0.96 -0.836,0.187 -1.619,0.832 -2.4,0.96 -2.517,0.413 -5.071,0.208 -4.32,3.12 4.283,-1.012 9.621,-2.511 15.12,-2.88 5.295,-0.355 10.598,0.755 14.88,0.48 0.075,-0.325 0.342,-0.458 0.24,-0.96 -1.472,-1.152 -4.104,-1.493 -6.72,-1.68 z m -26.639,5.28 c 0.574,-0.146 1.741,0.301 1.92,-0.24 -0.465,-0.334 -0.358,-1.242 -0.72,-1.68 -0.4,0 -0.8,0 -1.2,0 0,0.64 0,1.28 0,1.92 z m 3.84,1.2 c 0.157,16.483 -0.315,33.596 0.24,49.68 7.21,-1.997 16.868,-3.692 25.439,-2.16 0.519,-15.269 -1.105,-35.129 0.961,-48.24 0.517,-0.603 1.877,-0.362 2.159,-1.2 -9.532,-2.071 -20.94,-0.539 -28.799,1.92 z m 29.759,5.28 c 0.248,12.517 -0.33,27.16 0,39.84 0.041,1.57 -0.396,4.057 2.16,3.6 0.4,-14.88 0.4,-31.44 0,-46.32 -0.804,0.875 -1.558,1.802 -2.16,2.88 z M 33.6,228 c -0.285,1.001 -0.832,3 -0.48,3.84 7.064,-2.295 16.797,-3.083 25.68,-2.16 0,-1.2 0,-2.4 0,-3.6 -8.321,-1.443 -18.138,-0.062 -25.2,1.92 z m 29.279,2.4 c 1.122,-0.082 1.562,0.518 2.4,0.72 0.085,-1.525 -0.24,-2.64 -0.48,-3.84 -0.562,-0.236 -1.179,-0.421 -1.92,-0.48 0,1.2 0,2.4 0,3.6 z M 32.4,233.52 c -0.518,4.522 -0.111,9.969 -0.24,14.88 7.271,-3.087 16.798,-2.865 26.64,-2.4 0,-4.88 0,-9.76 0,-14.64 -8.749,-1.676 -18.97,0.244 -26.4,2.16 z m 30.479,13.2 c 1.143,0.218 2.178,0.542 3.36,0.72 -0.114,-4.846 0.257,-10.176 -0.24,-14.64 -0.93,-0.43 -2.096,-0.624 -3.12,-0.96 0,4.96 0,9.92 0,14.88 z M 32.16,276.48 c -0.181,5.739 -0.5,11.34 -0.72,17.04 10.464,-2.653 25.312,-3.408 35.52,0 -0.029,-5.731 -0.396,-11.124 -0.239,-17.04 -9.306,-3.163 -25.124,-2.737 -34.561,0 z m -0.48,19.68 c -0.129,24.91 -0.542,49.538 -0.48,74.64 10.33,-2.216 25.82,-3.321 36,-0.24 0.064,-25.264 -0.359,-50.04 -0.479,-75.12 -10.447,-2.739 -25.066,-2.11 -35.041,0.72 z m -0.72,76.56 c 0,1.2 0,2.4 0,3.601 10.178,-2.854 25.579,-3.532 36.24,-0.721 -0.156,-1.204 0.314,-3.034 -0.24,-3.84 -10.089,-2.367 -26.07,-2.139 -36,0.96 z m 5.52,4.08 c 3.351,17.037 4.389,35.405 5.04,54.24 0.653,18.907 1.2,38.486 1.2,58.08 0,38.215 -1.699,78.376 -1.2,117.12 4.604,0.23 10.41,0.588 14.64,-0.24 0.2,-56.63 -2.432,-114.854 0,-170.16 0.904,-20.565 1.037,-42.472 5.04,-60 -8.082,-0.889 -17.461,-0.813 -24.72,0.96 z m 30.72,10.8 c -0.159,-3.521 0.319,-7.679 -0.24,-10.8 -0.77,0.831 -2.285,-0.896 -3.12,0 1.616,3.103 2.197,7.243 3.36,10.8 z m -36.24,-9.84 c 0.159,2.401 -0.319,5.438 0.24,7.44 0.439,-2.922 1.822,-6.177 2.4,-8.16 -0.527,0.593 -1.964,0.276 -2.64,0.72 z m 28.56,20.64 c 2.271,-0.622 5.501,-1.25 8.16,-0.721 -1.217,-7.423 -2.841,-14.439 -5.521,-20.399 -1.055,6.864 -1.84,13.998 -2.639,21.12 z m -29.76,-0.72 c 2.665,-0.46 5.973,-0.038 8.16,0.721 -0.763,-7.158 -0.975,-14.866 -2.88,-20.881 -2.38,6.1 -3.615,13.345 -5.28,20.16 z m -0.48,2.16 C 24.618,421.647 21.318,444.628 18,468 c -3.323,23.399 -5.881,47.359 -8.4,70.8 0.421,-1.626 2.019,0.039 2.64,0.24 8.025,2.604 19.233,3.104 28.08,1.2 1.743,-46.562 1.168,-96.278 -2.4,-140.4 -2.189,-0.852 -5.32,-0.76 -8.4,-0.72 -0.28,0.04 -0.261,0.379 -0.24,0.72 z m 30.48,-0.24 c -3.894,44.025 -3.651,93.609 -2.641,140.4 9.394,2.92 24.024,0.955 30.96,-2.16 -5.638,-47.243 -10.892,-94.867 -19.92,-138.72 -3.076,-0.117 -5.873,0.046 -8.399,0.48 z m 28.32,139.68 c -7.089,4.045 -20.576,3.832 -30.72,2.64 -0.137,16.297 0.422,31.898 0.24,48.24 11.371,2.929 27.568,1.113 36.239,-2.16 -1.823,-16.336 -3.322,-32.998 -5.759,-48.72 z m -78.72,0.24 c -1.917,16.084 -4.229,33.052 -5.52,48.961 0.74,-0.981 2.173,0.166 3.12,0.479 8.716,2.885 22.783,3.679 32.88,1.2 0.387,-15.854 0.067,-32.413 0.48,-48.24 -10.274,1.346 -23.362,1.121 -30.96,-2.4 z m -7.44,65.04 c 9.423,5.373 26.95,6.862 37.92,1.44 0,-3.28 0,-6.56 0,-9.84 -8.763,1.868 -19.948,1.328 -27.84,-0.24 -3.158,-0.627 -6.719,-0.896 -8.4,-3.12 0.788,-1.416 2.16,-0.119 3.12,0.24 8.597,3.217 23.226,3.713 33.12,1.2 0,-0.8 0,-1.601 0,-2.4 -11.663,2.229 -27.323,1.471 -36.24,-2.64 -0.659,5.022 -1.202,10.158 -1.68,15.36 z M 57.6,591.84 c 0,0.8 0,1.6 0,2.4 9.296,2.527 23.415,1.765 31.68,-0.48 1.706,-0.463 3.264,-2.188 4.8,-1.2 0.19,1.689 -2.107,1.796 -3.359,2.16 -9.196,2.674 -22.605,3.595 -33.12,1.44 0.151,3.208 -0.31,7.028 0.239,9.84 5.991,1.944 13.368,4.557 21.36,3.6 6.003,-0.719 12.021,-3.315 16.561,-5.04 -0.826,-4.935 -0.616,-10.903 -1.921,-15.359 -8.869,4.203 -24.582,4.793 -36.24,2.639 z"
       id="path3197"
       inkscape:connector-curvature="0"
       style="fill-rule:evenodd" /></g><metadata
     id="metadata3199"><rdf:RDF><cc:Work><dc:format>image/svg+xml</dc:format><dc:type
           rdf:resource="http://purl.org/dc/dcmitype/StillImage" /><cc:license
           rdf:resource="http://creativecommons.org/licenses/publicdomain/" /><dc:publisher><cc:Agent
             rdf:about="http://openclipart.org/"><dc:title>Open Clip Art Library</dc:title></cc:Agent></dc:publisher><dc:title></dc:title><dc:date>2006-10-25T18:42:04</dc:date><dc:description>A NASA drawing of the Russian Soyuz rocket from 147266main_3.2.1.Liftoff_Activity11.pdf</dc:description><dc:source>http://openclipart.org/detail/901/soyuz-rocket-by-johnny_automatic</dc:source><dc:creator><cc:Agent><dc:title>johnny_automatic</dc:title></cc:Agent></dc:creator><dc:subject><rdf:Bag><rdf:li>black and white</rdf:li><rdf:li>clip art</rdf:li><rdf:li>clipart</rdf:li><rdf:li>nasa</rdf:li><rdf:li>outline</rdf:li><rdf:li>remix problem</rdf:li><rdf:li>rocket</rdf:li><rdf:li>russian</rdf:li><rdf:li>soyuz</rdf:li><rdf:li>space</rdf:li><rdf:li>spacecraft</rdf:li></rdf:Bag></dc:subject></cc:Work><cc:License
         rdf:about="http://creativecommons.org/licenses/publicdomain/"><cc:permits
           rdf:resource="http://creativecommons.org/ns#Reproduction" /><cc:permits
           rdf:resource="http://creativecommons.org/ns#Distribution" /><cc:permits
           rdf:resource="http://creativecommons.org/ns#DerivativeWorks" /></cc:License></rdf:RDF></metadata><path
     style="fill:#aa0000;stroke:#000000;stroke-width:0.86637533px;stroke-linecap:butt;stroke-linejoin:miter;stroke-opacity:1"
     d="m 40.663693,233.39089 0,24.23261 c 10.050321,-2.10583 20.169744,-4.108 34.362596,0 l 0,-24.43122 C 63.572091,230.315 52.117891,228.91579 40.663693,233.39089 z"
     id="path3205"
     inkscape:connector-curvature="0"
     sodipodi:nodetypes="ccccc" /><path
     style="fill:#800000;fill-opacity:1;stroke:none"
     d="m 33.992372,530.26492 c -6.08168,-0.52016 -10.977439,-1.43859 -13.605997,-2.55244 -0.436981,-0.18517 -1.045029,-0.34466 -1.351216,-0.35439 -0.550302,-0.0174 -0.555395,-0.0295 -0.442795,-1.02997 0.06266,-0.55675 0.293962,-2.934 0.514025,-5.28277 0.724604,-7.73385 3.98103,-35.24289 4.197564,-35.45941 0.0508,-0.0507 0.621799,0.11505 1.268872,0.36854 1.558328,0.61051 4.269334,1.2606 6.837387,1.63956 4.001818,0.59056 14.830539,0.56195 17.87642,-0.0472 l 0.544167,-0.1088 -0.07633,12.68218 c -0.04197,6.97518 -0.129995,16.35734 -0.195607,20.84923 l -0.119289,8.16706 -1.913744,0.32979 c -1.05256,0.18136 -2.584115,0.41487 -3.403453,0.51889 -1.629432,0.20687 -8.699528,0.40215 -10.130015,0.2798 z"
     id="path3209"
     inkscape:connector-curvature="0" /><path
     style="fill:#ff0000;fill-opacity:1;stroke:none"
     d="m 73.419976,530.26003 c -2.610123,-0.20487 -5.120417,-0.50645 -6.671071,-0.80148 l -1.705377,-0.32446 -0.1313,-20.76282 c -0.07221,-11.41956 -0.09994,-20.79419 -0.06162,-20.83252 0.03832,-0.0383 0.954217,0.0406 2.035306,0.17525 1.161561,0.14475 4.4844,0.24793 8.123079,0.25225 4.998354,0.007 6.568754,-0.0597 8.342364,-0.34846 2.466094,-0.40152 5.910742,-1.34631 7.076015,-1.94079 0.589249,-0.30062 0.797819,-0.33511 0.861014,-0.14239 0.510968,1.5582 5.064883,40.88547 4.810966,41.54718 -0.266944,0.69564 -7.603094,2.3471 -12.847309,2.89209 -2.145658,0.22299 -8.340035,0.40327 -9.832072,0.28615 l 0,0 z"
     id="path3211"
     inkscape:connector-curvature="0" /><path
     style="fill:#ff0000;fill-opacity:1;stroke:none"
     d="m 32.899921,530.08039 c -0.21849,-0.0433 -1.559227,-0.21921 -2.979417,-0.39098 -3.362845,-0.40675 -5.747514,-0.9038 -8.767596,-1.82746 -2.349217,-0.7185 -2.454869,-0.77389 -2.454869,-1.2871 0,-2.18791 4.27224,-39.38789 4.664132,-40.61235 0.0479,-0.14965 0.783693,-0.01 2.222512,0.4245 4.378014,1.31938 6.522751,1.56114 13.969265,1.57471 3.659716,0.007 7.448342,-0.0606 8.419171,-0.14939 l 1.765139,-0.16155 -0.150411,18.93186 c -0.08274,10.41251 -0.206672,19.73617 -0.275434,20.71924 l -0.125015,1.7874 -2.681475,0.43469 c -2.084224,0.33787 -3.853854,0.45702 -7.945108,0.5349 -2.894999,0.0551 -5.442399,0.0649 -5.66089,0.0216 z"
     id="path3213"
     inkscape:connector-curvature="0" /><path
     style="fill:#ff0000;fill-opacity:1;stroke:none"
     d="m 41.853812,245.14058 0,-11.41983 3.555308,-0.95734 c 4.816516,-1.29697 17.206217,-1.31423 23.379828,-0.0327 l 5.045347,1.04742 0,11.4235 0,11.42353 -2.887127,-0.85121 c -3.872063,-1.14155 -20.604743,-1.20814 -25.317881,-0.10068 l -3.775475,0.88711 0,-11.41984 z"
     id="path3215"
     inkscape:connector-curvature="0" /><path
     style="fill:#ff0000;fill-opacity:1;stroke:none"
     d=""
     id="path3217"
     inkscape:connector-curvature="0" /><path
     style="fill:#ff0000;fill-opacity:1;stroke:none"
     d="m 43.852593,361.83559 c -1.099329,-0.21172 -1.998781,-0.77471 -1.998781,-1.25103 0,-2.55305 3.013314,-12.33954 3.610186,-11.72498 1.012706,1.0427 2.103309,13.62678 1.168419,13.48198 -0.429575,-0.0666 -1.680496,-0.29422 -2.779824,-0.50597 z"
     id="path3231"
     inkscape:connector-curvature="0" /><path
     style="fill:#ff0000;fill-opacity:1;stroke:none"
     d="m 67.693692,359.59233 c 0.04282,-1.59721 0.372333,-4.90283 0.732289,-7.34578 l 0.654465,-4.44174 1.066806,2.55971 c 1.161049,2.78584 3.014065,10.43337 2.60679,10.75841 -0.138747,0.11079 -1.351597,0.46505 -2.695222,0.78739 -2.29605,0.55082 -2.438272,0.41144 -2.365128,-2.31799 z"
     id="path3233"
     inkscape:connector-curvature="0" /><path
     style="fill:#ff6600;fill-opacity:1;stroke:none"
     d="m 70.596485,543.97003 c -3.95281,-1.16642 -4.642977,-1.71187 -5.107993,-4.03696 -1.002977,-5.01488 -1.172432,-4.91648 7.679543,-4.4592 5.478451,0.28302 10.715097,-0.0484 15.711735,-0.99452 4.121993,-0.78046 7.583568,-1.32701 7.692394,-1.21453 0.108794,0.11251 0.325187,1.98867 0.480806,4.16934 l 0.282951,3.9649 -5.754468,2.00789 c -6.731887,2.34894 -14.249287,2.55066 -20.984968,0.56308 l 0,0 z"
     id="path3239"
     inkscape:connector-curvature="0" /><path
     style="fill:#ff6600;fill-opacity:1;stroke:none"
     d="m 26.932457,544.52621 c -6.182601,-1.10145 -10.254362,-3.21431 -9.580181,-4.9712 0.283897,-0.73983 0.516176,-2.66483 0.516176,-4.27778 l 0,-2.93266 3.775472,1.39046 c 2.679093,0.98668 7.19325,1.40795 15.54486,1.4507 l 11.769386,0.0602 0.0012,3.68856 c 10e-4,3.35899 -0.256767,3.78035 -2.885919,4.71564 -4.038252,1.43654 -13.550969,1.87192 -19.141002,0.87602 l -3.7e-5,0 z"
     id="path3241"
     inkscape:connector-curvature="0" /><path
     style="fill:#ff6600;fill-opacity:1;stroke:none"
     d="m 42.943454,265.07385 c 0.232224,-3.61854 0.58175,-6.73746 0.776724,-6.93092 1.190899,-1.18169 14.692043,-2.132 20.706702,-1.45748 3.77029,0.42282 6.989531,0.90998 7.153863,1.08256 0.164333,0.17258 0.582682,3.37972 0.929664,7.12695 l 0.630876,6.81316 -3.428968,-0.79564 c -4.304426,-0.99875 -18.15541,-1.00472 -23.305147,-0.011 l -3.88594,0.75056 0.422226,-6.57916 0,0 z"
     id="path3243"
     inkscape:connector-curvature="0" /><path
     style="fill:#ff6600;fill-opacity:1;stroke:none"
     d="m 43.630506,225.8718 c 0,-6.38885 -0.21202,-6.27481 13.103114,-7.04791 l 9.105554,-0.52868 0,5.90184 0,5.90182 -8.32825,0 c -4.580539,0 -9.577488,0.24986 -11.104334,0.55522 l -2.776084,0.55521 0,-5.3375 z"
     id="path3245"
     inkscape:connector-curvature="0" /><path
     style="fill:#ff6600;fill-opacity:1;stroke:none"
     d=""
     id="path3247"
     inkscape:connector-curvature="0" /><path
     style="fill:#ff6600;fill-opacity:1;stroke:none"
     d="m 70.947168,231.3638 c -0.366443,-0.36997 -0.66626,-3.28442 -0.66626,-6.47654 0,-4.05901 0.280844,-5.52304 0.934159,-4.86973 0.517493,0.5175 0.814667,3.40626 0.666259,6.47656 -0.147344,3.04833 -0.567716,5.2397 -0.934158,4.86971 z"
     id="path3249"
     inkscape:connector-curvature="0" /><path
     style="fill:#ff6600;fill-opacity:1;stroke:none"
     d="m 46.295546,83.295257 c 0,-0.509242 1.795789,-4.220313 3.99064,-8.246825 2.982253,-5.471011 4.562065,-7.464345 6.252006,-7.888494 3.668054,-0.920622 5.303422,0.612951 5.303422,4.973307 0,3.311456 0.275958,3.876642 2.01321,4.123235 1.277415,0.181322 2.631453,1.497614 3.70478,3.601511 l 1.691568,3.315745 -7.70234,-0.346931 c -4.236286,-0.190811 -9.401301,0.04487 -11.477813,0.523708 -2.583712,0.595816 -3.775473,0.578373 -3.775473,-0.05525 z"
     id="path3251"
     inkscape:connector-curvature="0" /><path
     style="fill:#ff6600;fill-opacity:1;stroke:none"
     d="m 55.6276,48.209881 c 0.351268,-0.855033 0.848667,-6.25174 1.105331,-11.992681 0.256663,-5.74094 0.811542,-10.438074 1.233065,-10.438074 0.421522,0 0.766405,4.917 0.766405,10.926665 0,7.314055 0.352449,11.279115 1.066016,11.992682 0.829123,0.829123 0.413182,1.066016 -1.871737,1.066016 -2.448932,0 -2.831482,-0.258676 -2.29908,-1.554608 z"
     id="path3253"
     inkscape:connector-curvature="0" /><path
     style="fill:#ff0000;fill-opacity:1;stroke:none"
     d="m 55.354676,60.202562 c 0.246229,-4.276793 0.459741,-4.686036 2.572911,-4.931543 2.219601,-0.257871 2.310329,-0.08625 2.465549,4.663821 l 0.161151,4.931543 -2.734061,0 -2.734062,0 0.268512,-4.663821 z"
     id="path3259"
     inkscape:connector-curvature="0" /><flowRoot
     xml:space="preserve"
     id="flowRoot3263"
     style="font-size:9px;font-style:normal;font-variant:normal;font-weight:bold;font-stretch:normal;line-height:110.00000238%;letter-spacing:0px;word-spacing:0px;fill:#d40000;fill-opacity:1;stroke:#c20000;stroke-opacity:1;font-family:Arial;-inkscape-font-specification:Arial Bold"
     transform="matrix(1.6028782,0,0,1.6028782,-9.4008878,-211.5186)"><flowRegion
       id="flowRegion3265"><rect
         id="rect3267"
         width="10.253601"
         height="56.229553"
         x="32.811523"
         y="302.48123"
         style="font-size:9px;font-style:normal;font-variant:normal;font-weight:bold;font-stretch:normal;line-height:110.00000238%;fill:#d40000;stroke:#c20000;stroke-opacity:1;font-family:Arial;-inkscape-font-specification:Arial Bold" /></flowRegion><flowPara
       id="flowPara3269">с</flowPara><flowPara
       id="flowPara3271">с</flowPara><flowPara
       id="flowPara3273">с</flowPara><flowPara
       id="flowPara3275">р</flowPara></flowRoot><path
     sodipodi:type="star"
     style="fill:#d40000;fill-opacity:1;stroke:#c20000;stroke-width:0.44100001;stroke-linecap:round;stroke-linejoin:miter;stroke-miterlimit:4;stroke-opacity:1;stroke-dasharray:none"
     id="path4045"
     sodipodi:sides="5"
     sodipodi:cx="42.414787"
     sodipodi:cy="95.912163"
     sodipodi:r1="8.2667179"
     sodipodi:r2="2.7280169"
     sodipodi:arg1="0.90975316"
     sodipodi:arg2="1.5380717"
     inkscape:flatsided="false"
     inkscape:rounded="0"
     inkscape:randomized="0"
     d="m 47.490061,102.43751 -4.986016,-3.798791 -4.72689,4.116761 2.072105,-5.915876 -5.375961,-3.223391 6.266648,0.142584 1.404363,-6.108926 1.800896,6.003997 6.243906,-0.552133 -5.153634,3.568091 z"
     transform="matrix(0.86637531,0,0,0.86637531,15.040718,17.87284)"
     inkscape:transform-center-x="0.072413152"
     inkscape:transform-center-y="-0.61468037" /><path
     style="opacity:0.6942446;fill:#000000;fill-opacity:1;stroke:none"
     d="m 68.840977,346.18718 c 5.37316,69.55306 9.026846,134.97088 3.900163,197.61662 6.702315,1.43647 16.486047,1.72279 25.00096,-2.87589 C 87.927133,476.98105 86.898641,414.6179 68.840977,346.18718 z"
     id="path4476"
     inkscape:connector-curvature="0"
     transform="translate(0,-2.578022e-6)"
     sodipodi:nodetypes="cccc" /><path
     style="opacity:0.69424462;fill:#000000;fill-opacity:1;stroke:none"
     d="m 46.025419,347.63726 c -4.414868,71.72818 -8.736612,134.60836 -21.476206,196.16653 6.702315,1.43647 16.486047,1.72279 25.00096,-2.87589 -3.289615,-50.53363 5.107401,-75.91978 -3.524754,-193.29064 z"
     id="path4476-3"
     inkscape:connector-curvature="0"
     sodipodi:nodetypes="cccc" /><path
     style="opacity:0.54676256;fill:#000000;fill-opacity:1;stroke:#000000;stroke-width:1px;stroke-linecap:butt;stroke-linejoin:miter;stroke-opacity:1"
     d="m 63.57233,85.104893 0,254.289317 8.202881,0 0,-252.238597 z"
     id="path4503"
     inkscape:connector-curvature="0"
     transform="translate(0,-2.578022e-6)"
     sodipodi:nodetypes="ccccc" /></svg>